<svg width="51" height="41" viewBox="0 0 51 41" fill="none" xmlns="http://www.w3.org/2000/svg">
<path d="M18.167 0.50293H18.792H24.417H25.042V1.12793V16.7529H30.042H30.667V18.0029H30.042H24.417H18.792H18.167V16.7529H18.792H23.792V1.75293H18.792H18.167V0.50293ZM0.666992 23.0029H1.29199H6.91699H7.54199V23.6279V39.2529H12.542H13.167V40.5029H12.542H6.91699H1.29199H0.666992V39.2529H1.29199H6.29199V24.2529H1.29199H0.666992V23.0029ZM2.54199 0.50293H13.792H14.417V1.12793V17.3779V18.0029H13.792H2.54199H1.91699V17.3779V1.12793V0.50293H2.54199ZM3.16699 16.7529H13.167V1.75293H3.16699V16.7529ZM16.917 23.0029H17.542H28.792H29.417V23.6279V39.8779V40.5029H28.792H17.542H16.917V39.8779V23.6279V23.0029ZM18.167 24.2529V39.2529H28.167V24.2529H18.167ZM41.917 16.7529C39.8076 16.7529 38.167 18.4717 38.167 20.5029V25.5029H45.667V20.5029C45.667 18.4717 43.9482 16.7529 41.917 16.7529ZM36.917 20.5029C36.917 17.7686 39.1045 15.5029 41.917 15.5029C44.6514 15.5029 46.917 17.7686 46.917 20.5029V25.5029H49.417H50.667V26.7529V39.2529V40.5029H49.417H34.417H33.167V39.2529V26.7529V25.5029H34.417H36.917V20.5029ZM34.417 26.7529V39.2529H49.417V26.7529H46.917H45.667H38.167H36.917H34.417Z" fill="#41B4FF"/>
</svg>
