<svg width="40" height="43" viewBox="0 0 40 43" fill="none" xmlns="http://www.w3.org/2000/svg">
<path d="M32.8125 35.55L6.25 8.98755C3.125 12.3469 1.25 16.8782 1.25 21.8C1.25 32.1907 9.60938 40.55 20 40.55C24.9219 40.55 29.4531 38.675 32.8125 35.55ZM33.6719 34.6125C36.7969 31.3313 38.75 26.8 38.75 21.8C38.75 11.4875 30.3125 3.05005 20 3.05005C15 3.05005 10.4688 5.00317 7.1875 8.12817L33.6719 34.6125ZM0 21.8C0 14.6907 3.75 8.12817 10 4.53442C16.1719 0.940674 23.75 0.940674 30 4.53442C36.1719 8.12817 40 14.6907 40 21.8C40 28.9875 36.1719 35.55 30 39.1438C23.75 42.7375 16.1719 42.7375 10 39.1438C3.75 35.55 0 28.9875 0 21.8Z" fill="#F17C23"/>
</svg>
