<svg width="31" height="41" viewBox="0 0 31 41" fill="none" xmlns="http://www.w3.org/2000/svg">
<path d="M18.458 0.268555H24.083H24.708V0.893555V16.5186H29.708H30.333V17.7686H29.708H24.083H18.458H17.833V16.5186H18.458H23.458V1.51855H18.458H17.833V0.268555H18.458ZM0.958008 22.7686H6.58301H7.20801V23.3936V39.0186H12.208H12.833V40.2686H12.208H6.58301H0.958008H0.333008V39.0186H0.958008H5.95801V24.0186H0.958008H0.333008V22.7686H0.958008ZM1.58301 0.268555H2.20801H13.458H14.083V0.893555V17.1436V17.7686H13.458H2.20801H1.58301V17.1436V0.893555V0.268555ZM2.83301 1.51855V16.5186H12.833V1.51855H2.83301ZM17.208 22.7686H28.458H29.083V23.3936V39.6436V40.2686H28.458H17.208H16.583V39.6436V23.3936V22.7686H17.208ZM17.833 39.0186H27.833V24.0186H17.833V39.0186Z" fill="#41B4FF"/>
</svg>
