<svg width="46" height="41" viewBox="0 0 46 41" fill="none" xmlns="http://www.w3.org/2000/svg">
<path d="M1.125 0.53418H44.875H45.5V1.78418H44.875H1.125H0.5V0.53418H1.125ZM4.25 4.90918V26.7842H23H41.75V4.90918V4.28418H43V4.90918V27.4092C43 27.7998 42.6875 28.0342 42.375 28.0342H23.625V32.1748L30.2656 38.8936L30.7344 39.2842L29.875 40.2217L29.4062 39.7529L23 33.3467L16.5156 39.7529L16.125 40.2217L15.1875 39.3623L15.6562 38.8936L22.375 32.1748V28.0342H3.625C3.23438 28.0342 3 27.7998 3 27.4092V4.90918V4.28418H4.25V4.90918Z" fill="#41B4FF"/>
</svg>
