<svg width="40" height="41" viewBox="0 0 40 41" fill="none" xmlns="http://www.w3.org/2000/svg">
<path d="M1.25 10.4094V12.05H17.5C17.1094 11.5813 16.875 10.8782 16.875 10.175C16.875 8.4563 18.2031 7.05005 20 7.05005C21.7188 7.05005 23.125 8.4563 23.125 10.175C23.125 10.8782 22.8906 11.5813 22.5 12.05H38.75V10.4094L20 2.2063L1.25 10.4094ZM20 12.05C21.0156 12.05 21.875 11.2688 21.875 10.175C21.875 9.15942 21.0156 8.30005 20 8.30005C18.9062 8.30005 18.125 9.15942 18.125 10.175C18.125 11.2688 18.9062 12.05 20 12.05ZM20 13.3H1.25H0V12.05V9.55005L20 0.800049L40 9.55005V12.05V13.3H38.75H20ZM6.25 15.8V16.425V29.55H14.375V16.425V15.8H15.625V16.425V29.55H24.375V16.425V15.8H25.625V16.425V29.55H33.75V16.425V15.8H35V16.425V30.175V30.8H34.375H25.625H24.375H15.625H14.375H5.625H5V30.175V16.425V15.8H6.25ZM2.5 34.55H3.125H36.875H37.5V35.8H36.875H3.125H2.5V34.55ZM0 39.55H0.625H39.375H40V40.8H39.375H0.625H0V39.55Z" fill="#41B4FF"/>
</svg>
