<svg width="24" height="24" viewBox="0 0 24 24" fill="none" xmlns="http://www.w3.org/2000/svg">
<path d="M0 9V7.5V6.75L12 0L24 6.75V7.5V9H22.5H12H1.5H0ZM14.3438 7.5H22.2656L12 1.73438L1.6875 7.5H9.60938C9.42188 7.17188 9.375 6.79688 9.375 6.375C9.375 4.96875 10.5469 3.75 12 3.75C13.4062 3.75 14.625 4.96875 14.625 6.375C14.625 6.79688 14.5312 7.17188 14.3438 7.5ZM12 5.25C11.3438 5.25 10.875 5.76562 10.875 6.375C10.875 7.03125 11.3438 7.5 12 7.5C12.6094 7.5 13.125 7.03125 13.125 6.375C13.125 5.76562 12.6094 5.25 12 5.25ZM3 16.5V10.5H4.5V16.5H8.25V10.5H9.75V16.5H14.25V10.5H15.75V16.5H19.5V10.5H21V16.5H21.75V18H21H3H2.25V16.5H3ZM22.875 21H22.125H1.875H1.125V19.5H1.875H22.125H22.875V21ZM0.75 22.5H23.25H24V24H23.25H0.75H0V22.5H0.75Z" fill="#41B4FF"/>
</svg>
