<svg width="40" height="41" viewBox="0 0 40 41" fill="none" xmlns="http://www.w3.org/2000/svg">
<path d="M20 0.800049C22.0312 0.800049 24.0625 1.11255 25.9375 1.73755L24.9219 2.75317C23.3594 2.28442 21.6406 2.05005 20 2.05005C9.60938 2.05005 1.25 10.4875 1.25 20.8C1.25 31.1907 9.60938 39.55 20 39.55C30.3125 39.55 38.75 31.1907 38.75 20.8C38.75 19.1594 38.5156 17.4407 38.0469 15.8782L39.0625 14.8625C39.6094 16.7375 40 18.7688 40 20.8C40 31.8938 31.0156 40.8 20 40.8C8.90625 40.8 0 31.8938 0 20.8C0 9.78442 8.90625 0.800049 20 0.800049ZM20 7.67505C20.625 7.67505 21.25 7.75317 21.9531 7.8313L22.1094 9.15942C21.4062 9.00317 20.7031 8.92505 20 8.92505C13.4375 8.92505 8.125 14.3157 8.125 20.8C8.125 27.3625 13.4375 32.675 20 32.675C26.4844 32.675 31.875 27.3625 31.875 20.8C31.875 20.0969 31.7969 19.3938 31.6406 18.6907L32.9688 18.8469C33.0469 19.55 33.125 20.175 33.125 20.8C33.125 28.0657 27.1875 33.925 20 33.925C12.7344 33.925 6.875 28.0657 6.875 20.8C6.875 13.6125 12.7344 7.67505 20 7.67505ZM21.0938 15.3313L19.9219 16.425C17.5 16.5032 15.625 18.3782 15.625 20.8H15.5469L15.625 20.8782C15.625 23.3 17.5781 25.175 19.9219 25.175L20 25.2532V25.175C22.4219 25.175 24.2969 23.2219 24.375 20.8782L25.4688 19.7063C25.5469 20.0969 25.625 20.4875 25.625 20.8782C25.625 23.925 23.0469 26.5032 20 26.5032C16.875 26.5032 14.375 23.925 14.375 20.8782C14.375 17.7532 16.875 15.2532 20 15.2532C20.3125 15.2532 20.7031 15.2532 21.0938 15.3313ZM31.7188 8.22192L29.7656 3.22192L25.625 7.28442L26.6406 13.3L31.7188 8.1438V8.22192ZM27.5 14.1594L33.5156 15.175L37.5781 11.0344L32.5781 9.0813L27.5 14.1594ZM26.4062 15.2532L20.3906 21.2688L19.9219 21.7375L19.0625 20.8L19.5312 20.4094L25.5469 14.3938L24.375 7.2063L24.2969 6.8938L24.5312 6.65942L29.5312 1.65942L30.1562 0.956299L30.5469 1.81567L32.9688 7.8313L38.9844 10.2532L39.8438 10.6438L39.1406 11.2688L34.1406 16.2688L33.9062 16.5032L33.5938 16.425L26.4062 15.2532Z" fill="#41B4FF"/>
</svg>
