<svg width="41" height="39" viewBox="0 0 41 39" fill="none" xmlns="http://www.w3.org/2000/svg">
<path d="M11.293 0.800049H30.043H30.668V1.42505V8.30005H39.418H40.668V9.55005V21.425V37.05V38.3H39.418H1.91797H0.667969V37.05V21.425V9.55005V8.30005H1.91797H10.668V1.42505V0.800049H11.293ZM39.418 20.8V9.55005H30.043H11.293H1.91797V20.8H14.418H15.668H25.668H26.918H39.418ZM25.668 22.05H15.668V27.05H25.668V22.05ZM14.418 22.05H1.91797V37.05H39.418V22.05H26.918V27.05V28.3H25.668H15.668H14.418V27.05V22.05ZM29.418 8.30005V2.05005H11.918V8.30005H29.418Z" fill="#F17C23"/>
</svg>
