<svg width="29" height="24" viewBox="0 0 29 24" fill="none" xmlns="http://www.w3.org/2000/svg">
<path d="M1.75 7.29999H0.25V5.79999V5.42499L3.71875 1.67499L4.75 0.549988L5.73438 1.67499L9.25 5.42499V5.79999V7.29999H7.75H5.5V20.8H13.75V2.04999V1.29999H14.5H24.25H25V2.04999V16.3H27.25H28.75V17.8V18.175L25.2344 21.9719L24.25 23.05L23.2188 21.9719L19.75 18.175V17.8V16.3H21.25H23.5V2.79999H15.25V21.55V22.3H14.5H4.75H4V21.55V7.29999H1.75ZM24.25 17.8H21.4375L24.25 20.8469L27.0156 17.8H24.25ZM7.51562 5.79999L4.75 2.79999L1.9375 5.79999H7.51562Z" fill="#41B4FF"/>
</svg>
