<svg width="39" height="35" viewBox="0 0 39 35" fill="none" xmlns="http://www.w3.org/2000/svg">
<path d="M38.3594 1.9563L37.8906 2.34692L25.3906 12.3469L24.9219 12.6594L24.5312 12.2688L14.9219 3.28442L1.64062 14.2219L1.09375 14.6125L0.3125 13.5969L0.78125 13.2063L14.5312 1.9563L15 1.6438L15.3906 2.03442L25 11.0188L37.1094 1.3313L37.5781 0.940674L38.3594 1.9563ZM6.25 23.05H3.75V33.05H6.25V23.05ZM3.75 21.8H6.25H7.5V23.05V33.05V34.3H6.25H3.75H2.5V33.05V23.05V21.8H3.75ZM13.75 15.55V33.05H16.25V15.55H13.75ZM12.5 14.3H13.75H16.25H17.5V15.55V33.05V34.3H16.25H13.75H12.5V33.05V15.55V14.3ZM26.25 20.55H23.75V33.05H26.25V20.55ZM23.75 19.3H26.25H27.5V20.55V33.05V34.3H26.25H23.75H22.5V33.05V20.55V19.3H23.75ZM33.75 15.55V33.05H36.25V15.55H33.75ZM32.5 14.3H33.75H36.25H37.5V15.55V33.05V34.3H36.25H33.75H32.5V33.05V15.55V14.3Z" fill="#41B4FF"/>
</svg>
