<svg width="43" height="41" viewBox="0 0 43 41" fill="none" xmlns="http://www.w3.org/2000/svg">
<path d="M38.75 17.5342C38.75 8.62793 31.4062 1.28418 22.5 1.28418V17.5342H38.75ZM21.25 0.112305C21.6406 0.112305 22.0312 0.0341797 22.5 0.0341797C32.1094 0.0341797 40 7.9248 40 17.5342C40 18.0029 39.9219 18.3936 39.9219 18.7842H22.5H21.25V17.5342V0.112305ZM16.25 23.0811V22.5342V4.01855C7.73438 5.19043 1.25 12.5342 1.25 21.2842C1.25 30.9717 9.0625 38.7842 18.75 38.7842C22.4219 38.7842 25.9375 37.6123 28.75 35.6592L16.5625 23.4717L16.25 23.0811ZM29.7656 34.8779L30.7031 35.7373C30.3125 36.0498 30 36.2842 29.6875 36.5186C26.5625 38.7842 22.8125 40.0342 18.75 40.0342C8.35938 40.0342 0 31.6748 0 21.2842C0 11.8311 7.03125 3.94043 16.25 2.76855C16.6406 2.69043 17.0312 2.6123 17.5 2.6123V3.8623V22.5342L29.7656 34.8779ZM22.5 22.5342H24.2188H41.1719H42.4219C42.4219 23.0029 42.3438 23.3936 42.2656 23.7842C41.6406 28.6279 39.2188 32.8467 35.625 35.7373L23.75 23.7842L22.5 22.5342ZM25.4688 23.7842L35.7031 34.0186C38.5156 31.3623 40.4688 27.8467 41.0156 23.7842H25.4688Z" fill="#41B4FF"/>
</svg>
