<svg width="36" height="36" viewBox="0 0 36 36" fill="none" xmlns="http://www.w3.org/2000/svg">
<path d="M21.583 2.01855H14.083V34.5186H21.583V2.01855ZM14.083 0.768555H21.583H22.833V2.01855V34.5186V35.7686H21.583H14.083H12.833V34.5186V2.01855V0.768555H14.083ZM9.08301 17.0186H1.58301V34.5186H9.08301V17.0186ZM1.58301 15.7686H9.08301H10.333V17.0186V34.5186V35.7686H9.08301H1.58301H0.333008V34.5186V17.0186V15.7686H1.58301ZM26.583 7.01855V34.5186H34.083V7.01855H26.583ZM25.333 5.76855H26.583H34.083H35.333V7.01855V34.5186V35.7686H34.083H26.583H25.333V34.5186V7.01855V5.76855Z" fill="#41B4FF"/>
</svg>
