<svg width="30" height="41" viewBox="0 0 30 41" fill="none" xmlns="http://www.w3.org/2000/svg">
<path d="M20.0781 6.51855L19.8438 5.58105C19.375 3.2373 17.3438 1.51855 15 1.51855C12.5781 1.51855 10.5469 3.2373 10.0781 5.58105L9.84375 6.51855H8.82812H6.25V11.5186H15H23.75V6.51855H21.0938H20.0781ZM8.82812 5.26855C9.45312 2.45605 11.9531 0.268555 15 0.268555C17.9688 0.268555 20.5469 2.45605 21.0938 5.26855H23.75H25V6.51855V7.76855H29.375H30V8.39355V39.6436V40.2686H29.375H0.625H0V39.6436V8.39355V7.76855H0.625H5V6.51855V5.26855H6.25H8.82812ZM1.25 9.01855V39.0186H28.75V9.01855H25V11.5186V12.7686H23.75H15H6.25H5V11.5186V9.01855H1.25ZM15 7.76855C14.2969 7.76855 13.75 7.22168 13.75 6.51855C13.75 5.89355 14.2969 5.26855 15 5.26855C15.625 5.26855 16.25 5.89355 16.25 6.51855C16.25 7.22168 15.625 7.76855 15 7.76855ZM12.5 17.1436H13.125H24.375H25V18.3936H24.375H13.125H12.5V17.1436ZM12.5 24.6436H13.125H24.375H25V25.8936H24.375H13.125H12.5V24.6436ZM12.5 32.1436H13.125H24.375H25V33.3936H24.375H13.125H12.5V32.1436ZM7.5 34.0186C6.79688 34.0186 6.25 33.4717 6.25 32.7686C6.25 32.1436 6.79688 31.5186 7.5 31.5186C8.125 31.5186 8.75 32.1436 8.75 32.7686C8.75 33.4717 8.125 34.0186 7.5 34.0186ZM8.75 25.2686C8.75 25.9717 8.125 26.5186 7.5 26.5186C6.79688 26.5186 6.25 25.9717 6.25 25.2686C6.25 24.6436 6.79688 24.0186 7.5 24.0186C8.125 24.0186 8.75 24.6436 8.75 25.2686ZM7.5 19.0186C6.79688 19.0186 6.25 18.4717 6.25 17.7686C6.25 17.1436 6.79688 16.5186 7.5 16.5186C8.125 16.5186 8.75 17.1436 8.75 17.7686C8.75 18.4717 8.125 19.0186 7.5 19.0186Z" fill="#41B4FF"/>
</svg>
