<svg width="51" height="41" viewBox="0 0 51 41" fill="none" xmlns="http://www.w3.org/2000/svg">
<path d="M8.16602 22.05H13.4004C13.3223 22.5188 13.2441 22.9094 13.166 23.3H8.16602H1.91602H0.666016V22.05V15.8C0.666016 11.6594 4.02539 8.30005 8.16602 8.30005H8.24414C8.79102 4.0813 12.4629 0.800049 16.916 0.800049C20.3535 0.800049 23.4004 2.90942 24.8066 5.80005H28.166C32.3066 5.80005 35.666 9.15942 35.666 13.3C35.666 14.2375 35.5098 15.0969 35.1973 15.8782C34.7285 15.8782 34.2598 15.9563 33.791 16.0344C34.1816 15.175 34.416 14.3157 34.416 13.3C34.416 9.86255 31.6035 7.05005 28.166 7.05005H24.8066H24.0254L23.6348 6.34692C22.4629 3.84692 19.8848 2.05005 16.916 2.05005C13.0879 2.05005 9.96289 4.86255 9.49414 8.53442L9.33789 9.62817L8.24414 9.55005H8.16602C4.65039 9.55005 1.91602 12.3625 1.91602 15.8V22.05H8.16602ZM41.916 25.8V25.8782C41.916 22.3625 39.1035 19.6282 35.666 19.6282C34.3379 19.6282 33.166 19.9407 32.2285 20.5657L31.2129 21.2688L30.5098 20.2532C29.1816 18.3782 26.916 17.05 24.416 17.05C20.2754 17.05 16.916 20.4094 16.916 24.55V26.2688V27.1282L16.0566 27.4407C13.6348 28.3 11.916 30.6438 11.916 33.3V39.55H18.166H43.166H49.416V33.3C49.416 29.8625 46.6035 27.05 43.166 27.05H41.916V25.8ZM10.666 40.8V39.55V33.3C10.666 30.0969 12.6973 27.2844 15.666 26.2688V24.55C15.666 19.7844 19.5723 15.8 24.416 15.8C27.3066 15.8 29.9629 17.2844 31.5254 19.55C32.6973 18.7688 34.1035 18.3 35.666 18.3C39.8066 18.3 43.166 21.6594 43.166 25.8C47.3066 25.8 50.666 29.1594 50.666 33.3V39.55V40.8H49.416H43.166H18.166H11.916H10.666Z" fill="#F17C23"/>
</svg>
