<svg width="50" height="36" viewBox="0 0 50 36" fill="none" xmlns="http://www.w3.org/2000/svg">
<path d="M1.25 2.01855V27.0186H13.9062H14.375H20.625H21.0156H33.75V2.01855H1.25ZM13.4375 28.2686H1.25H0V27.0186V2.01855V0.768555H1.25H33.75H35V2.01855V27.0186V28.2686H33.75H21.4844L23.5156 34.5186H30V35.7686H23.9844H23.125H11.875H10.9375H5V34.5186H11.4062L13.4375 28.2686ZM14.7656 28.2686L12.7344 34.5186H22.1875L20.1562 28.2686H14.7656ZM48.75 2.01855H38.75V34.5186H48.75V2.01855ZM38.75 0.768555H48.75H50V2.01855V34.5186V35.7686H48.75H38.75H37.5V34.5186V2.01855V0.768555H38.75ZM40.625 8.26855H41.25H46.25H46.875V9.51855H46.25H41.25H40.625V8.26855ZM41.25 13.2686H46.25H46.875V14.5186H46.25H41.25H40.625V13.2686H41.25ZM42.5 24.5186C42.5 23.8936 43.0469 23.2686 43.75 23.2686C44.375 23.2686 45 23.8936 45 24.5186C45 25.2217 44.375 25.7686 43.75 25.7686C43.0469 25.7686 42.5 25.2217 42.5 24.5186ZM5 5.76855V23.2686H30V5.76855H5ZM3.75 4.51855H5H30H31.25V5.76855V23.2686V24.5186H30H5H3.75V23.2686V5.76855V4.51855Z" fill="#41B4FF"/>
</svg>
