<svg width="35" height="41" viewBox="0 0 35 41" fill="none" xmlns="http://www.w3.org/2000/svg">
<path d="M1.25 15.1904V23.7061L10.1562 29.0186H24.7656L33.75 23.7061V15.1904L25.3125 20.1904L25.1562 20.2686H25H10H9.76562L9.60938 20.1904L1.25 15.1904ZM1.25 13.7061L10.1562 19.0186H24.7656L33.75 13.7061V7.22168L24.6094 1.51855H10.3125L1.25 7.22168V13.7061ZM1.25 33.3936L10.3125 39.0186H24.6094L33.75 33.3936V25.1904L25.3125 30.1904L25.1562 30.2686H25H10H9.76562L9.60938 30.1904L1.25 25.1904V33.3936ZM10 0.268555H25L35 6.51855V34.0186L25 40.2686H10L0 34.0186V6.51855L10 0.268555Z" fill="#41B4FF"/>
</svg>
