<svg width="25" height="23" viewBox="0 0 25 23" fill="none" xmlns="http://www.w3.org/2000/svg">
<path d="M24.9688 1.90938L15.9688 9.40938L15.4531 9.78438L14.9844 9.3625L9.45312 4.53438L1.67188 10.1594L0.78125 8.9875L9.03125 2.9875L9.5 2.6125L9.96875 2.9875L15.5 7.81563L23.9844 0.737503L24.9688 1.90938ZM4.25 16.3H2.75V20.8H4.25V16.3ZM2.75 14.8H4.25H5.75V16.3V20.8V22.3H4.25H2.75H1.25V20.8V16.3V14.8H2.75ZM8.75 11.8V20.8H10.25V11.8H8.75ZM7.25 10.3H8.75H10.25H11.75V11.8V20.8V22.3H10.25H8.75H7.25V20.8V11.8V10.3ZM16.25 14.8H14.75V20.8H16.25V14.8ZM14.75 13.3H16.25H17.75V14.8V20.8V22.3H16.25H14.75H13.25V20.8V14.8V13.3H14.75ZM20.75 11.8V20.8H22.25V11.8H20.75ZM19.25 10.3H20.75H22.25H23.75V11.8V20.8V22.3H22.25H20.75H19.25V20.8V11.8V10.3Z" fill="#41B4FF"/>
</svg>
