<svg width="1678" height="960" viewBox="0 0 1678 960" fill="none" xmlns="http://www.w3.org/2000/svg">
<path d="M752.447 480C752.447 330.993 632.01 210.19 483.455 210.19C334.899 210.19 214.462 330.993 214.462 480C214.462 629.007 334.899 749.81 483.455 749.81C632.01 749.81 752.447 629.007 752.447 480ZM962 480C962 745.037 747.689 960 483.368 960C219.048 960 4.82269 745.037 4.82269 480C4.82269 214.963 219.134 0 483.368 0C747.602 0 961.914 214.963 961.914 480" fill="#19234C"/>
<path d="M1256 0H962L1288 480L962 960H1256L1582 480L1256 0Z" fill="#19234C"/>
</svg>
