<svg width="23" height="17" viewBox="0 0 23 17" fill="none" xmlns="http://www.w3.org/2000/svg">
<path d="M14.168 7.42505V3.67505V1.17505V0.550049H14.793H18.543H19.168V1.17505V3.67505V4.30005H18.543H15.418V7.42505V8.05005H14.168V7.42505ZM17.918 3.05005V1.80005H15.418V3.05005H17.918ZM21.668 7.42505C21.668 6.25317 21.1602 5.15942 20.418 4.37817V3.67505V2.77661C21.9023 3.75317 22.918 5.47192 22.918 7.42505V15.55V16.8H21.668H11.668H10.418H1.66797H0.417969V15.55V7.42505C0.417969 4.33911 2.91797 1.80005 6.04297 1.80005H12.918V3.05005H9.55859C10.8477 4.10474 11.668 5.66724 11.668 7.42505V15.55H21.668V7.42505ZM10.418 15.55V7.42505C10.418 5.04224 8.42578 3.05005 6.04297 3.05005C3.62109 3.05005 1.66797 5.04224 1.66797 7.42505V15.55H10.418ZM4.16797 6.80005H4.79297H7.29297H7.91797V8.05005H7.29297H4.79297H4.16797V6.80005Z" fill="#41B4FF"/>
</svg>
