<svg width="27" height="22" viewBox="0 0 27 22" fill="none" xmlns="http://www.w3.org/2000/svg">
<path d="M5.53125 16.2847C7.59375 18.3003 10.2656 19.8003 13.5 19.8003C16.6875 19.8003 19.3594 18.3003 21.4688 16.2847C23.2969 14.5034 24.6094 12.394 25.3594 10.8003C24.6094 9.25342 23.2969 7.14404 21.4688 5.31592C19.3594 3.34717 16.6875 1.80029 13.5 1.80029C10.2656 1.80029 7.59375 3.34717 5.53125 5.31592C3.65625 7.14404 2.34375 9.25342 1.59375 10.8003C2.34375 12.394 3.65625 14.5034 5.53125 16.2847ZM13.5 21.3003C6.04688 21.3003 1.40625 14.3159 0 10.8003C1.40625 7.33154 6.04688 0.300293 13.5 0.300293C20.9062 0.300293 25.5938 7.33154 27 10.8003C25.5938 14.3159 20.9062 21.3003 13.5 21.3003ZM9 10.8003C9 12.4409 9.84375 13.894 11.25 14.7378C12.6094 15.5347 14.3438 15.5347 15.75 14.7378C17.1094 13.894 18 12.4409 18 10.8003C18 9.20654 17.1094 7.75342 15.75 6.90967C14.3438 6.11279 12.6094 6.11279 11.25 6.90967C9.84375 7.75342 9 9.20654 9 10.8003ZM19.5 10.8003C19.5 12.9565 18.3281 14.9253 16.5 16.0034C14.625 17.0815 12.3281 17.0815 10.5 16.0034C8.625 14.9253 7.5 12.9565 7.5 10.8003C7.5 8.69092 8.625 6.72217 10.5 5.64404C12.3281 4.56592 14.625 4.56592 16.5 5.64404C18.3281 6.72217 19.5 8.69092 19.5 10.8003Z" fill="#41B4FF"/>
</svg>
