<svg width="32" height="32" viewBox="0 0 32 32" fill="none" xmlns="http://www.w3.org/2000/svg">
<path d="M6.35625 17.8463H6.3425C5.09244 18.124 3.97457 18.8199 3.17362 19.8191C2.37268 20.8182 1.93661 22.0607 1.9375 23.3413V24.4538C1.9375 24.951 2.13505 25.428 2.48668 25.7796C2.83831 26.1312 3.31522 26.3288 3.8125 26.3288H8.5C8.99728 26.3288 9.4742 26.1312 9.82583 25.7796C10.1775 25.428 10.375 24.951 10.375 24.4538C10.375 23.9565 10.5725 23.4796 10.9242 23.1279C11.2758 22.7763 11.7527 22.5788 12.25 22.5788H19.75C20.2473 22.5788 20.7242 22.7763 21.0758 23.1279C21.4275 23.4796 21.625 23.9565 21.625 24.4538C21.625 24.951 21.8225 25.428 22.1742 25.7796C22.5258 26.1312 23.0027 26.3288 23.5 26.3288H28.1875C28.6848 26.3288 29.1617 26.1312 29.5133 25.7796C29.865 25.428 30.0625 24.951 30.0625 24.4538V23.3413C30.0625 22.0614 29.6261 20.8197 28.8252 19.8214C28.0243 18.823 26.9069 18.1276 25.6575 17.85H25.6438C19.2739 16.6162 12.7266 16.615 6.35625 17.8463Z" stroke="#41B4FF" stroke-linecap="round" stroke-linejoin="round"/>
<path d="M16 12.2662V5.70374" stroke="#41B4FF" stroke-linecap="round" stroke-linejoin="round"/>
<path d="M9.4375 12.2662L6.625 7.57874" stroke="#41B4FF" stroke-linecap="round" stroke-linejoin="round"/>
<path d="M22.5625 12.2662L25.375 7.57874" stroke="#41B4FF" stroke-linecap="round" stroke-linejoin="round"/>
</svg>
