<svg width="24" height="25" viewBox="0 0 24 25" fill="none" xmlns="http://www.w3.org/2000/svg">
<path d="M0 9.80005V8.30005V7.55005L12 0.800049L24 7.55005V8.30005V9.80005H22.5H12H1.5H0ZM14.3438 8.30005H22.2656L12 2.53442L1.6875 8.30005H9.60938C9.42188 7.97192 9.375 7.59692 9.375 7.17505C9.375 5.7688 10.5469 4.55005 12 4.55005C13.4062 4.55005 14.625 5.7688 14.625 7.17505C14.625 7.59692 14.5312 7.97192 14.3438 8.30005ZM12 6.05005C11.3438 6.05005 10.875 6.56567 10.875 7.17505C10.875 7.8313 11.3438 8.30005 12 8.30005C12.6094 8.30005 13.125 7.8313 13.125 7.17505C13.125 6.56567 12.6094 6.05005 12 6.05005ZM3 17.3V11.3H4.5V17.3H8.25V11.3H9.75V17.3H14.25V11.3H15.75V17.3H19.5V11.3H21V17.3H21.75V18.8H21H3H2.25V17.3H3ZM22.875 21.8H22.125H1.875H1.125V20.3H1.875H22.125H22.875V21.8ZM0.75 23.3H23.25H24V24.8H23.25H0.75H0V23.3H0.75Z" fill="#41B4FF"/>
</svg>
