<svg width="24" height="25" viewBox="0 0 24 25" fill="none" xmlns="http://www.w3.org/2000/svg">
<path d="M9.14062 5.86279C8.48438 6.14404 7.92188 6.47217 7.40625 6.89404L6.79688 7.36279L6.04688 7.12842L3.60938 6.33154L2.15625 8.81592L4.07812 10.5034L4.64062 11.0659L4.54688 11.8159C4.5 12.144 4.5 12.4722 4.5 12.8003C4.5 13.1753 4.5 13.5034 4.54688 13.8315L4.64062 14.5815L4.07812 15.144L2.15625 16.8315L3.60938 19.3159L6.04688 18.519L6.79688 18.2847L7.40625 18.7534C7.92188 19.1753 8.48438 19.5034 9.14062 19.7378L9.84375 20.0659L10.0312 20.8159L10.5469 23.3003H13.4062L13.9688 20.8159L14.1094 20.0659L14.8594 19.7378C15.4688 19.5034 16.0312 19.1753 16.5469 18.7534L17.2031 18.2847L17.9531 18.519L20.3906 19.3159L21.7969 16.8315L19.875 15.144L19.3125 14.5815L19.4062 13.8315C19.4531 13.5034 19.5 13.1753 19.5 12.8472C19.5 12.4722 19.4531 12.144 19.4062 11.8159L19.3125 11.0659L19.875 10.5034L21.7969 8.81592L20.3906 6.33154L17.9531 7.12842L17.2031 7.36279L16.5469 6.89404C16.0312 6.47217 15.4688 6.14404 14.8594 5.90967L14.1094 5.58154L13.9219 4.83154L13.4062 2.30029H10.5469L10.0312 4.83154L9.84375 5.58154L9.14062 5.86279ZM9.375 0.800293H14.625L15.4219 4.50342C16.1719 4.78467 16.8281 5.20654 17.4844 5.67529L21.0469 4.55029L23.6719 9.09717L20.9062 11.6284C20.9531 12.0034 21 12.4253 21 12.8003C21 13.2222 20.9531 13.5972 20.9062 14.019L23.6719 16.5503L21.0469 21.0972L17.4844 19.9253C16.8281 20.4409 16.1719 20.8159 15.4219 21.144L14.625 24.8003H9.375L8.53125 21.144C7.82812 20.8628 7.125 20.4409 6.46875 19.9722L2.90625 21.0972L0.28125 16.5503L3.04688 14.019C3 13.644 3 13.2222 3 12.8003C3 12.4253 3 12.0034 3.04688 11.6284L0.28125 9.09717L2.90625 4.55029L6.46875 5.67529C7.125 5.20654 7.82812 4.78467 8.53125 4.50342L9.375 0.800293ZM14.625 12.8003C14.625 11.8628 14.1094 11.019 13.3125 10.5503C12.4688 10.0815 11.4844 10.0815 10.6875 10.5503C9.84375 11.019 9.375 11.8628 9.375 12.8003C9.375 13.7847 9.84375 14.6284 10.6875 15.0972C11.4844 15.5659 12.4688 15.5659 13.3125 15.0972C14.1094 14.6284 14.625 13.7847 14.625 12.8003ZM7.875 12.8003C7.875 11.3472 8.625 9.98779 9.9375 9.23779C11.2031 8.53467 12.75 8.53467 14.0625 9.23779C15.3281 9.98779 16.125 11.3472 16.125 12.8003C16.125 14.3003 15.3281 15.6597 14.0625 16.4097C12.75 17.1128 11.2031 17.1128 9.9375 16.4097C8.625 15.6597 7.875 14.3003 7.875 12.8003Z" fill="#41B4FF"/>
</svg>
