<svg width="50" height="40" viewBox="0 0 50 40" fill="none" xmlns="http://www.w3.org/2000/svg">
<path d="M16.0156 4.25311C17.0312 4.64374 18.0469 5.19061 18.9062 5.97186L22.2656 4.79999L25 9.48749L22.3438 11.8312C22.4219 12.3781 22.5 13.0031 22.5 13.55C22.5 14.175 22.4219 14.7219 22.3438 15.3469L25 17.6906L22.2656 22.3L18.9062 21.2062C18.0469 21.9875 17.0312 22.5344 16.0156 22.925L15.2344 26.675H9.76562L8.98438 22.925C7.89062 22.5344 6.875 21.9875 6.01562 21.2062L2.65625 22.3L0 17.6906L2.57812 15.3469C2.5 14.8 2.5 14.175 2.5 13.55C2.5 13.0031 2.5 12.3781 2.57812 11.8312L0 9.48749L2.65625 4.79999L6.01562 5.97186C6.875 5.19061 7.89062 4.64374 8.98438 4.25311L9.76562 0.424988H15.2344L16.0156 4.25311ZM21.7188 6.36249L19.2969 7.14374L18.6719 7.37811L18.125 6.90936C17.3438 6.28436 16.4844 5.73749 15.5469 5.42499L14.9219 5.11249L14.7656 4.48749L14.2188 1.67499H10.7812L10.1562 4.48749L10 5.11249L9.375 5.42499C8.4375 5.73749 7.57812 6.28436 6.79688 6.90936L6.32812 7.37811L5.625 7.14374L3.20312 6.36249L1.5625 9.25311L3.4375 10.8937L3.98438 11.3625L3.82812 12.0656C3.75 12.5344 3.75 13.0812 3.75 13.55C3.75 14.0969 3.75 14.6437 3.82812 15.1125L3.98438 15.8156L3.4375 16.2844L1.5625 17.925L3.20312 20.8156L5.625 20.0344L6.32812 19.8L6.79688 20.2687C7.57812 20.8937 8.4375 21.4406 9.375 21.7531L10 21.9875L10.1562 22.6906L10.7812 25.425H14.2188L14.7656 22.6906L14.9219 22.0656L15.5469 21.7531C16.4844 21.4406 17.3438 20.8937 18.125 20.2687L18.6719 19.8L19.2969 20.0344L21.7188 20.8156L23.3594 17.925L21.4844 16.2844L20.9375 15.8156L21.0938 15.1125C21.1719 14.6437 21.1719 14.0969 21.1719 13.55C21.1719 13.0812 21.1719 12.5344 21.0938 12.0656L20.9375 11.3625L21.4844 10.8937L23.3594 9.25311L21.7188 6.36249ZM12.5 16.675C13.5938 16.675 14.6094 16.1281 15.1562 15.1125C15.7031 14.175 15.7031 13.0031 15.1562 11.9875C14.6094 11.05 13.5938 10.425 12.5 10.425C11.3281 10.425 10.3125 11.05 9.76562 11.9875C9.21875 13.0031 9.21875 14.175 9.76562 15.1125C10.3125 16.1281 11.3281 16.675 12.5 16.675ZM8.125 13.55C8.125 11.9875 8.90625 10.5812 10.3125 9.79999C11.6406 9.01874 13.2812 9.01874 14.6875 9.79999C16.0156 10.5812 16.875 11.9875 16.875 13.55C16.875 15.1906 16.0156 16.5969 14.6875 17.3781C13.2812 18.1594 11.6406 18.1594 10.3125 17.3781C8.90625 16.5969 8.125 15.1906 8.125 13.55ZM26.875 23.7844C27.2656 22.7687 27.8125 21.7531 28.5938 20.8937L27.5 17.5344L32.1094 14.8L34.4531 17.4562C35 17.3781 35.625 17.3 36.25 17.3C36.7969 17.3 37.4219 17.3781 37.9688 17.4562L40.3125 14.8L45 17.5344L43.8281 20.8937C44.6094 21.7531 45.1562 22.7687 45.5469 23.7844L49.375 24.5656V30.0344L45.5469 30.8156C45.1562 31.9094 44.6094 32.925 43.8281 33.7844L45 37.1437L40.3125 39.8L37.9688 37.2219C37.4219 37.3 36.7969 37.3 36.25 37.3C35.625 37.3 35.0781 37.3 34.4531 37.2219L32.1094 39.8L27.5 37.1437L28.5938 33.7844C27.8125 32.925 27.2656 31.9094 26.875 30.8156L23.125 30.0344V24.5656L26.875 23.7844ZM28.9844 18.0812L29.7656 20.5031L30 21.1281L29.5312 21.675C28.9062 22.4562 28.3594 23.3156 28.0469 24.2531L27.8125 24.8781L27.1094 25.0344L24.375 25.5812V29.0187L27.1094 29.6437L27.7344 29.8L27.9688 30.425C28.3594 31.3625 28.9062 32.2219 29.5312 33.0031L30 33.4719L29.7656 34.175L28.9844 36.5969L31.875 38.2375L33.5156 36.3625L33.9844 35.8156L34.6875 35.9719C35.1562 36.05 35.7031 36.05 36.1719 36.05C36.7188 36.05 37.2656 36.05 37.7344 35.9719L38.4375 35.8156L38.9062 36.3625L40.5469 38.2375L43.4375 36.5969L42.6562 34.175L42.4219 33.4719L42.8906 33.0031C43.5156 32.2219 44.0625 31.3625 44.375 30.425L44.6875 29.8L45.3125 29.6437L48.125 29.0187V25.5812L45.3125 25.0344L44.6875 24.8781L44.4531 24.2531C44.0625 23.3156 43.5156 22.4562 42.8906 21.675L42.4219 21.1281L42.6562 20.5031L43.4375 18.0812L40.5469 16.4406L38.9062 18.3156L38.4375 18.8625L37.7344 18.7062C37.2656 18.6281 36.7188 18.6281 36.25 18.6281C35.7031 18.6281 35.1562 18.6281 34.6875 18.7062L33.9844 18.8625L33.5156 18.3156L31.875 16.4406L28.9844 18.0812ZM39.375 27.3C39.375 26.2062 38.75 25.1906 37.8125 24.6437C36.7969 24.0969 35.625 24.0969 34.6875 24.6437C33.6719 25.1906 33.125 26.2062 33.125 27.3C33.125 28.4719 33.6719 29.4875 34.6875 30.0344C35.625 30.5812 36.7969 30.5812 37.8125 30.0344C38.75 29.4875 39.375 28.4719 39.375 27.3ZM36.25 31.675C34.6094 31.675 33.2031 30.8937 32.4219 29.4875C31.6406 28.1594 31.6406 26.5187 32.4219 25.1125C33.2031 23.7844 34.6094 22.925 36.25 22.925C37.8125 22.925 39.2188 23.7844 40 25.1125C40.7812 26.5187 40.7812 28.1594 40 29.4875C39.2188 30.8937 37.8125 31.675 36.25 31.675Z" fill="#41B4FF"/>
</svg>
