<svg width="41" height="41" viewBox="0 0 41 41" fill="none" xmlns="http://www.w3.org/2000/svg">
<path d="M12.832 33.3H11.582H1.58203H0.332031V32.05V2.05005V0.800049H1.58203H39.082H40.332V2.05005V32.05V33.3H39.082H24.082L14.082 40.0188L12.832 40.8V39.3157V34.55V33.3ZM12.832 32.05H14.082V33.3V38.5344L23.3789 32.2844L23.6914 32.05H24.082H39.082V2.05005H1.58203V32.05H12.832ZM13.457 11.425C13.457 9.0813 15.4102 7.05005 17.832 7.05005H22.207C24.9414 7.05005 27.207 9.31567 27.207 12.05C27.207 13.7688 26.3477 15.3313 24.9414 16.2688L20.957 18.8469V20.8V21.425H19.707V20.8V18.5344V18.2219L19.9414 17.9875L24.2383 15.175C25.2539 14.4719 25.957 13.3 25.957 12.05C25.957 10.0188 24.2383 8.30005 22.207 8.30005H17.832C16.0352 8.30005 14.707 9.7063 14.707 11.425V11.9719H13.457V11.425ZM19.082 23.3H21.582V25.8H19.082V23.3Z" fill="#F17C23"/>
</svg>
