<svg width="40" height="41" viewBox="0 0 40 41" fill="none" xmlns="http://www.w3.org/2000/svg">
<path d="M29.1406 1.625C27.5 1.625 26.0156 2.48438 25.2344 3.8125L21.0938 10.375H23.125H29.375C31.7188 10.375 33.75 8.42188 33.75 6C33.75 3.65625 31.7188 1.625 29.375 1.625H29.1406ZM18.8281 10.375L14.6875 3.8125C13.9062 2.48438 12.4219 1.625 10.7812 1.625H10.625C8.20312 1.625 6.25 3.65625 6.25 6C6.25 8.42188 8.20312 10.375 10.625 10.375H16.875H18.8281ZM20 9.82812L24.1406 3.1875C25.2344 1.46875 27.1094 0.375 29.1406 0.375H29.375C32.4219 0.375 35 2.95312 35 6C35 7.79688 34.1406 9.35938 32.8906 10.375H38.75H40V11.625V19.125V20.375H38.75H37.5V39.125V40.375H36.25H3.75H2.5V39.125V20.375H1.25H0V19.125V11.625V10.375H1.25H7.03125C5.78125 9.35938 5 7.79688 5 6C5 2.95312 7.5 0.375 10.625 0.375H10.7812C12.8125 0.375 14.6875 1.46875 15.7812 3.1875L20 9.82812ZM10.625 11.625H1.25V19.125H2.5H3.75H19.375V11.625H16.875H10.625ZM20.625 11.625V19.125H36.25H37.5H38.75V11.625H29.375H23.125H20.625ZM19.375 20.375H3.75V39.125H19.375V20.375ZM20.625 39.125H36.25V20.375H20.625V39.125Z" fill="#F17C23"/>
</svg>
