<svg width="50" height="36" viewBox="0 0 50 36" fill="none" xmlns="http://www.w3.org/2000/svg">
<path d="M25 18.9719L48.75 10.6907V9.98755L25 1.62817L1.25 9.98755V10.6907L8.28125 13.1907L24.7656 7.0188L25.3125 6.78442L25.7812 7.9563L25.1562 8.19067L10.1562 13.8157L25 18.9719ZM8.4375 14.5188L5.625 17.8V22.7219L6.17188 24.2063C7.03125 26.55 7.5 28.9719 7.5 31.4719V34.4407V35.3L6.64062 35.0657L0.9375 33.425L0.078125 33.1907L0.546875 32.4875L1.40625 31.3157C2.5 29.675 3.35938 27.8 3.75 25.8469L4.375 22.8V17.5657V17.3313L4.53125 17.175L7.1875 14.1282L0 11.55V9.05005L25 0.300049L50 9.05005V11.55L25 20.3L8.4375 14.5188ZM12.3438 18.8157L11.25 29.7532C11.25 29.9094 11.4062 30.3 11.9531 30.8469C12.5781 31.3157 13.5156 31.8625 14.8438 32.4094C17.3438 33.425 20.9375 34.05 25 34.05C28.9844 34.05 32.5781 33.425 35.1562 32.4094C36.4062 31.8625 37.3438 31.3157 37.9688 30.8469C38.5938 30.3 38.6719 29.9094 38.75 29.7532L37.5781 18.8157L38.75 18.3469L40 29.675C40 32.4875 33.2812 35.3 25 35.3C16.7188 35.3 10 32.4875 10 29.675L11.1719 18.3469L12.3438 18.8157ZM5.15625 25.1438L4.92188 26.1594C4.53125 28.2688 3.67188 30.2219 2.42188 32.0188L2.10938 32.4875L6.25 33.6594V31.4719C6.25 29.2844 5.85938 27.175 5.15625 25.1438Z" fill="#41B4FF"/>
</svg>
