<svg width="24" height="25" viewBox="0 0 24 25" fill="none" xmlns="http://www.w3.org/2000/svg">
<path d="M4.6875 2.3938L3.98438 2.62817L1.5 3.61255V9.80005C1.5 13.1282 4.17188 15.8 7.5 15.8C10.7812 15.8 13.5 13.1282 13.5 9.80005V3.61255L10.9688 2.62817L10.2656 2.3938L10.7812 0.987549L11.4844 1.22192L14.4844 2.34692L15 2.53442V3.05005V9.80005C15 13.6907 12 16.925 8.25 17.3C8.25 20.6282 10.9219 23.3 14.25 23.3C17.5312 23.3 20.25 20.6282 20.25 17.3V12.7063C18.9375 12.3782 18 11.2063 18 9.80005C18 8.15942 19.3125 6.80005 21 6.80005C22.6406 6.80005 24 8.15942 24 9.80005C24 11.2063 23.0156 12.3782 21.75 12.7063V17.3C21.75 21.4719 18.375 24.8 14.25 24.8C10.0781 24.8 6.75 21.4719 6.75 17.3C2.95312 16.925 0 13.6907 0 9.80005V3.05005V2.53442L0.46875 2.34692L3.46875 1.22192L4.17188 0.987549L4.6875 2.3938ZM21 11.3C21.7969 11.3 22.5 10.6438 22.5 9.80005C22.5 9.00317 21.7969 8.30005 21 8.30005C20.1562 8.30005 19.5 9.00317 19.5 9.80005C19.5 10.6438 20.1562 11.3 21 11.3Z" fill="#41B4FF"/>
</svg>
