<svg width="243" height="44" viewBox="0 0 243 44" fill="none" xmlns="http://www.w3.org/2000/svg">
<path d="M34.4948 22C34.4948 28.8295 28.9379 34.3663 22.0837 34.3663C15.2294 34.3663 9.67259 28.8295 9.67259 22C9.67259 15.1705 15.2294 9.6337 22.0837 9.6337C28.9379 9.6337 34.4948 15.1705 34.4948 22ZM44.1634 22C44.1634 9.85247 34.2752 0 22.0797 0C9.88416 0 0 9.85247 0 22C0 34.1475 9.88816 44 22.0797 44C34.2712 44 44.1594 34.1475 44.1594 22" fill="#F17C23"/>
<path d="M44.1634 0H55.6763L70.8698 21.821L55.5645 43.9045H44.1634L58.9936 21.9523L44.1634 0Z" fill="#F17C23"/>
<path d="M98.7019 22.8134C98.7019 27.3638 95.3447 30.6811 90.8976 30.6811C86.4505 30.6811 83.0933 27.3677 83.0933 22.8134C83.0933 18.2591 86.4505 14.9458 90.8976 14.9458C95.3447 14.9458 98.7019 18.2312 98.7019 22.8134ZM94.678 22.8134C94.678 20.0092 92.8617 18.5932 90.8976 18.5932C88.9335 18.5932 87.1172 20.0092 87.1172 22.8134C87.1172 25.6176 88.9335 27.0336 90.8976 27.0336C92.8617 27.0336 94.678 25.6176 94.678 22.8134Z" fill="white"/>
<path d="M101.001 35.9553V15.3992H104.905V17.209C105.572 16.0635 107.233 15.0691 109.472 15.0691C113.828 15.0691 116.339 18.3824 116.339 22.7856C116.339 27.1888 113.524 30.5936 109.321 30.5936C107.265 30.5936 105.752 29.7782 105.025 28.7838V35.9553H101.001ZM108.686 18.6568C106.63 18.6568 104.965 20.1922 104.965 22.8174C104.965 25.4426 106.63 27.0058 108.686 27.0058C110.742 27.0058 112.375 25.4704 112.375 22.8174C112.375 20.1643 110.742 18.6568 108.686 18.6568Z" fill="white"/>
<path d="M123.508 15.3992H126.502V18.9552H123.508V25.1642C123.508 26.4609 124.111 26.8825 125.261 26.8825C125.744 26.8825 126.291 26.8228 126.502 26.7632V30.0765C126.139 30.2276 125.412 30.4384 124.235 30.4384C121.333 30.4384 119.516 28.7201 119.516 25.8563V18.9552H116.826V15.3992H117.58C119.153 15.3992 119.879 14.373 119.879 13.0484V10.9682H123.508V15.3992Z" fill="white"/>
<path d="M131.037 8.04465C132.43 8.04465 133.516 9.15837 133.516 10.5466C133.516 11.9347 132.426 12.9888 131.037 12.9888C129.648 12.9888 128.558 11.8751 128.558 10.5466C128.558 9.21804 129.676 8.04465 131.037 8.04465ZM129.041 30.2276V15.3992H133.065V30.2276H129.041Z" fill="white"/>
<path d="M136.482 30.2276V15.3992H140.322V17.209C141.141 15.7612 143.045 14.9776 144.678 14.9776C146.706 14.9776 148.338 15.8526 149.093 17.4477C150.274 15.6379 151.847 14.9776 153.811 14.9776C156.566 14.9776 159.197 16.6362 159.197 20.6138V30.2276H155.292V21.4252C155.292 19.8262 154.506 18.621 152.662 18.621C150.937 18.621 149.907 19.9456 149.907 21.5446V30.2236H145.915V21.4213C145.915 19.8223 145.097 18.6171 143.284 18.6171C141.472 18.6171 140.502 19.9138 140.502 21.5406V30.2197H136.478L136.482 30.2276Z" fill="white"/>
<path d="M171.903 28.6326C171.085 30.0208 169.36 30.6214 167.787 30.6214C164.187 30.6214 162.131 28.0002 162.131 24.7744V15.3992H166.155V23.959C166.155 25.6176 167.001 26.9421 168.877 26.9421C170.753 26.9421 171.691 25.7369 171.691 24.0186V15.3992H175.715V27.5467C175.715 28.6923 175.807 29.7185 175.867 30.2276H172.027C171.967 29.9253 171.907 29.2332 171.907 28.6286L171.903 28.6326Z" fill="white"/>
<path d="M181.312 25.3471C181.404 26.5245 182.278 27.6064 184.035 27.6064C185.364 27.6064 186.003 26.9143 186.003 26.1307C186.003 25.4665 185.548 24.9255 184.398 24.6829L182.434 24.2294C179.56 23.597 178.258 21.8787 178.258 19.7984C178.258 17.1454 180.618 14.9458 183.823 14.9458C188.059 14.9458 189.48 17.6266 189.659 19.2256L186.302 19.9774C186.182 19.1023 185.548 17.9886 183.851 17.9886C182.793 17.9886 181.947 18.621 181.947 19.4643C181.947 20.1882 182.49 20.6417 183.308 20.7888L185.424 21.2423C188.358 21.8469 189.839 23.6248 189.839 25.7926C189.839 28.203 187.963 30.6771 184.063 30.6771C179.588 30.6771 178.043 27.7854 177.863 26.0949L181.312 25.3432V25.3471Z" fill="white"/>
<path d="M200.067 25.5579C200.25 27.0654 201.396 28.2707 203.456 28.2707C205.061 28.2707 205.935 27.3677 205.935 26.3415C205.935 25.4386 205.268 24.7425 204.059 24.4721L201.58 23.9311C199.312 23.4498 197.951 21.9105 197.951 19.862C197.951 17.392 200.278 15.2799 203.124 15.2799C207.116 15.2799 208.358 17.8733 208.661 19.166L206.15 20.1007C206.031 19.3489 205.424 17.6903 203.124 17.6903C201.671 17.6903 200.705 18.625 200.705 19.6194C200.705 20.4945 201.248 21.1269 202.37 21.3696L204.729 21.8827C207.36 22.4554 208.753 24.0544 208.753 26.1944C208.753 28.3343 207.029 30.6851 203.428 30.6851C199.436 30.6851 197.739 28.1235 197.5 26.4648L200.071 25.5619L200.067 25.5579Z" fill="white"/>
<path d="M211.651 30.2276V8.40661H214.466V17.7818C215.16 16.4851 216.857 15.3117 219.276 15.3117C223.691 15.3117 225.963 18.6887 225.963 22.9089C225.963 27.1291 223.511 30.6254 219.188 30.6254C217.04 30.6254 215.376 29.6907 214.47 28.1235V30.2316H211.655L211.651 30.2276ZM218.761 17.8096C216.25 17.8096 214.434 19.7706 214.434 22.9049C214.434 26.0392 216.25 28.0877 218.761 28.0877C221.272 28.0877 223.056 26.0392 223.056 22.9049C223.056 19.7706 221.392 17.8096 218.761 17.8096Z" fill="white"/>
<path d="M236.789 18.5932C236.366 18.5335 235.943 18.5017 235.547 18.5017C233.156 18.5017 231.555 19.7666 231.555 22.9606V30.2236H228.713V15.7254H231.495V18.2591C232.553 16.0277 234.37 15.4867 235.851 15.4867C236.242 15.4867 236.637 15.5464 236.789 15.5782V18.5932Z" fill="white"/>
</svg>
