<svg width="40" height="41" viewBox="0 0 40 41" fill="none" xmlns="http://www.w3.org/2000/svg">
<path d="M6.82324 2.12811L6.19824 2.28436L1.66699 3.76874V15.8C1.66699 21.3469 6.12012 25.8 11.667 25.8C17.1357 25.8 21.667 21.3469 21.667 15.8V3.76874L17.0576 2.28436L16.4326 2.12811L16.8232 0.956238L17.4482 1.11249L22.4482 2.75311L22.8389 2.90936V3.29999V15.8C22.8389 21.8156 18.1514 26.7375 12.2139 27.05V28.925C12.2139 34.8625 16.9795 39.55 22.8389 39.55C28.7764 39.55 33.4639 34.8625 33.4639 28.925V20.8C31.042 20.4875 29.0889 18.3781 29.0889 15.8C29.0889 13.0656 31.3545 10.8 34.0889 10.8C36.9014 10.8 39.0889 13.0656 39.0889 15.8C39.0889 18.3781 37.2139 20.4875 34.7139 20.8V28.925C34.7139 35.4875 29.4014 40.8 22.8389 40.8C16.3545 40.8 10.9639 35.4875 10.9639 28.925V27.05C5.10449 26.7375 0.416992 21.8156 0.416992 15.8V3.29999V2.90936L0.807617 2.75311L5.80762 1.11249L6.43262 0.956238L6.82324 2.12811ZM34.167 12.05C32.7607 12.05 31.5889 12.8312 30.8857 13.925C30.1826 15.0969 30.1826 16.5812 30.8857 17.675C31.5889 18.8469 32.7607 19.55 34.167 19.55C35.4951 19.55 36.667 18.8469 37.3701 17.675C38.0732 16.5812 38.0732 15.0969 37.3701 13.925C36.667 12.8312 35.4951 12.05 34.167 12.05Z" fill="#41B4FF"/>
</svg>
