<svg width="25" height="22" viewBox="0 0 25 22" fill="none" xmlns="http://www.w3.org/2000/svg">
<path d="M12.1428 5.65625L11.0647 4.57812L9.9397 3.45312C9.0022 2.51562 7.78345 2 6.47095 2C3.79907 2 1.64282 4.20312 1.64282 6.875C1.64282 8.1875 2.11157 9.40625 3.04907 10.3438L4.17407 11.4688L12.1428 19.3906L20.0647 11.4688L21.1897 10.3438C22.1272 9.40625 22.6428 8.1875 22.6428 6.875C22.6428 4.20312 20.4397 2 17.7678 2C16.4553 2 15.2366 2.51562 14.2991 3.45312L13.1741 4.57812L12.1428 5.65625ZM13.1741 20.4688L12.1428 21.5L11.0647 20.4688L3.14282 12.5L1.97095 11.375C0.799072 10.2031 0.142822 8.5625 0.142822 6.875C0.142822 3.35938 2.95532 0.5 6.47095 0.5C8.15845 0.5 9.79907 1.20312 10.9709 2.375L11.0647 2.46875L12.1428 3.5L13.1741 2.46875L13.2678 2.375C14.4397 1.20312 16.0803 0.5 17.7678 0.5C21.2834 0.5 24.1428 3.35938 24.1428 6.875C24.1428 8.5625 23.4397 10.2031 22.2678 11.375L21.1428 12.5L13.1741 20.4688Z" fill="#41B4FF"/>
</svg>
