<svg width="40" height="36" viewBox="0 0 40 36" fill="none" xmlns="http://www.w3.org/2000/svg">
<path d="M20 7.67188L19.0625 6.8125L17.1875 4.9375C15.4688 3.14062 13.0469 2.125 10.5469 2.125C5.39062 2.125 1.25 6.34375 1.25 11.5C1.25 14 2.1875 16.3438 3.98438 18.1406L5.85938 20.0156L20 34.1562L34.0625 20.0156L35.9375 18.1406C37.7344 16.3438 38.75 14 38.75 11.5C38.75 6.34375 34.5312 2.125 29.375 2.125C26.875 2.125 24.5312 3.14062 22.7344 4.9375L20.8594 6.8125L20 7.67188ZM20.8594 35.0156L20 35.875L19.0625 35.0156L5 20.875L3.04688 19C1.09375 17.0469 0 14.3125 0 11.5C0 5.64062 4.6875 0.875 10.5469 0.875C13.3594 0.875 16.0938 2.04688 18.0469 4L19.0625 5.01562L20 5.875L20.8594 5.01562L21.875 4C23.8281 2.04688 26.5625 0.875 29.375 0.875C35.2344 0.875 40 5.64062 40 11.5C40 14.3125 38.8281 17.0469 36.875 19L35 20.875L20.8594 35.0156Z" fill="#F17C23"/>
</svg>
