<svg width="40" height="36" viewBox="0 0 40 36" fill="none" xmlns="http://www.w3.org/2000/svg">
<path d="M20 7.09686L19.0625 6.23749L17.1875 4.36249C15.4688 2.56561 13.0469 1.54999 10.5469 1.54999C5.39062 1.54999 1.25 5.76874 1.25 10.925C1.25 13.425 2.1875 15.7687 3.98438 17.5656L5.85938 19.4406L20 33.5812L34.0625 19.4406L35.9375 17.5656C37.7344 15.7687 38.75 13.425 38.75 10.925C38.75 5.76874 34.5312 1.54999 29.375 1.54999C26.875 1.54999 24.5312 2.56561 22.7344 4.36249L20.8594 6.23749L20 7.09686ZM20.8594 34.4406L20 35.3L19.0625 34.4406L5 20.3L3.04688 18.425C1.09375 16.4719 0 13.7375 0 10.925C0 5.06561 4.6875 0.299988 10.5469 0.299988C13.3594 0.299988 16.0938 1.47186 18.0469 3.42499L19.0625 4.44061L20 5.29999L20.8594 4.44061L21.875 3.42499C23.8281 1.47186 26.5625 0.299988 29.375 0.299988C35.2344 0.299988 40 5.06561 40 10.925C40 13.7375 38.8281 16.4719 36.875 18.425L35 20.3L20.8594 34.4406Z" fill="#41B4FF"/>
</svg>
