<svg width="24" height="22" viewBox="0 0 24 22" fill="none" xmlns="http://www.w3.org/2000/svg">
<path d="M12 5.4563L10.9219 4.37817L9.79688 3.25317C8.85938 2.31567 7.64062 1.80005 6.32812 1.80005C3.65625 1.80005 1.5 4.00317 1.5 6.67505C1.5 7.98755 1.96875 9.2063 2.90625 10.1438L4.03125 11.2688L12 19.1907L19.9219 11.2688L21.0469 10.1438C21.9844 9.2063 22.5 7.98755 22.5 6.67505C22.5 4.00317 20.2969 1.80005 17.625 1.80005C16.3125 1.80005 15.0938 2.31567 14.1562 3.25317L13.0312 4.37817L12 5.4563ZM13.0312 20.2688L12 21.3L10.9219 20.2688L3 12.3L1.82812 11.175C0.65625 10.0032 0 8.36255 0 6.67505C0 3.15942 2.8125 0.300049 6.32812 0.300049C8.01562 0.300049 9.65625 1.00317 10.8281 2.17505L10.9219 2.2688L12 3.30005L13.0312 2.2688L13.125 2.17505C14.2969 1.00317 15.9375 0.300049 17.625 0.300049C21.1406 0.300049 24 3.15942 24 6.67505C24 8.36255 23.2969 10.0032 22.125 11.175L21 12.3L13.0312 20.2688Z" fill="#41B4FF"/>
</svg>
