<svg width="428" height="260" viewBox="0 0 428 260" fill="none" xmlns="http://www.w3.org/2000/svg">
<g opacity="0.5">
<path d="M202.906 130C202.906 89.6438 170.287 56.9264 130.053 56.9264C89.8195 56.9264 57.2013 89.6438 57.2013 130C57.2013 170.356 89.8195 203.074 130.053 203.074C170.287 203.074 202.906 170.356 202.906 130ZM259.659 130C259.659 201.781 201.617 260 130.03 260C58.4432 260 0.42392 201.781 0.42392 130C0.42392 58.2191 58.4666 -9.53674e-06 130.03 -9.53674e-06C201.593 -9.53674e-06 259.636 58.2191 259.636 130" fill="#19234C"/>
<path d="M339.284 0H259.659L347.951 130L259.659 260H339.284L427.576 130L339.284 0Z" fill="#19234C"/>
</g>
</svg>
