<svg width="390" height="255" viewBox="0 0 390 255" fill="none" xmlns="http://www.w3.org/2000/svg">
<path opacity="0.5" d="M198.002 127.029C198.002 87.5948 166.105 55.6252 126.761 55.6252C87.4177 55.6252 55.5211 87.5948 55.5211 127.029C55.5211 166.462 87.4177 198.432 126.761 198.432C166.105 198.432 198.002 166.462 198.002 127.029ZM253.5 127.029C253.5 197.169 196.741 254.057 126.739 254.057C56.7356 254.057 0 197.169 0 127.029C0 56.8884 56.7585 0 126.739 0C196.719 0 253.477 56.8884 253.477 127.029" fill="url(#paint0_linear_2148_17928)"/>
<path opacity="0.5" d="M303.58 0L225.643 0L312.063 127.029L225.643 254.057L303.58 254.057L390 127.029L303.58 0Z" fill="url(#paint1_linear_2148_17928)"/>
<defs>
<linearGradient id="paint0_linear_2148_17928" x1="126.75" y1="0" x2="126.75" y2="254.057" gradientUnits="userSpaceOnUse">
<stop stop-color="#004C97" stop-opacity="0"/>
<stop offset="1" stop-color="#004C97"/>
</linearGradient>
<linearGradient id="paint1_linear_2148_17928" x1="307.821" y1="0" x2="307.821" y2="254.057" gradientUnits="userSpaceOnUse">
<stop stop-color="#004C97" stop-opacity="0"/>
<stop offset="1" stop-color="#004C97"/>
</linearGradient>
</defs>
</svg>
