<svg width="1440" height="960" viewBox="0 0 1440 960" fill="none" xmlns="http://www.w3.org/2000/svg">
<g opacity="0.7">
<g style="mix-blend-mode:multiply">
<path d="M514.447 480C514.447 330.993 394.011 210.19 245.455 210.19C96.8988 210.19 -23.5379 330.993 -23.5379 480C-23.5379 629.007 96.8988 749.81 245.455 749.81C394.011 749.81 514.447 629.007 514.447 480ZM724 480C724 745.037 509.689 960 245.368 960C-18.9522 960 -233.177 745.037 -233.177 480C-233.177 214.963 -18.8657 0 245.368 0C509.602 0 723.914 214.963 723.914 480" fill="#19234C"/>
</g>
<g style="mix-blend-mode:multiply">
<path d="M1018 0H724L1050 480L724 960H1018L1344 480L1018 0Z" fill="#19234C"/>
</g>
</g>
</svg>
