<svg width="60" height="48" viewBox="0 0 60 48" fill="none" xmlns="http://www.w3.org/2000/svg">
<path d="M45 16.5C45 8.25 38.25 1.5 30 1.5C21.6562 1.5 15 8.25 15 16.5C15 19.6875 15.9375 22.6875 17.625 25.125C18.0938 25.6875 18.5625 26.3438 19.0312 27C20.1562 28.5938 21.375 30.2812 22.4062 32.0625C23.0625 33.375 23.4375 34.6875 23.7188 36H22.2188C21.9375 34.875 21.6562 33.8438 21.0938 32.8125C20.1562 31.125 19.0312 29.5312 17.8125 27.9375C17.3438 27.2812 16.875 26.625 16.4062 25.9688C14.5312 23.25 13.5 20.0625 13.5 16.5C13.5 7.40625 20.8125 0 30 0C39.0938 0 46.5 7.40625 46.5 16.5C46.5 20.0625 45.375 23.25 43.5 25.9688C43.0312 26.625 42.5625 27.2812 42.0938 27.9375C40.9688 29.5312 39.75 31.125 38.8125 32.8125C38.25 33.8438 37.9688 34.875 37.7812 36H36.1875C36.4688 34.6875 36.8438 33.375 37.5 32.0625C38.5312 30.2812 39.75 28.5938 40.9688 27C41.4375 26.3438 41.9062 25.6875 42.2812 25.125C43.9688 22.6875 45 19.6875 45 16.5ZM21 15.75H19.5C19.5 10.4062 23.8125 6 29.25 6V7.5C24.6562 7.5 21 11.25 21 15.75ZM24 46.5H36V40.5H24V46.5ZM22.5 39H24H36H37.5V40.5V46.5V48H36H24H22.5V46.5V40.5V39ZM4.59375 0.46875L11.625 4.6875L12.2812 5.0625L11.4375 6.28125L10.7812 5.90625L3.75 1.6875L3.1875 1.3125L3.9375 0L4.59375 0.46875ZM56.1562 1.6875L49.125 5.90625L48.4688 6.28125L47.7188 5.0625L48.2812 4.6875L55.3125 0.46875L55.9688 0L56.8125 1.3125L56.1562 1.6875ZM0.75 15H8.25H9V16.5H8.25H0.75H0V15H0.75ZM51.75 15H59.25H60V16.5H59.25H51.75H51V15H51.75ZM11.625 25.4062L4.59375 29.625L3.9375 30L3.1875 28.7812L3.75 28.4062L10.7812 24.1875L11.4375 23.7188L12.2812 25.0312L11.625 25.4062ZM49.125 24.1875L56.1562 28.4062L56.8125 28.7812L55.9688 30L55.3125 29.625L48.2812 25.4062L47.7188 25.0312L48.4688 23.8125L49.125 24.1875Z" fill="#F17C23"/>
</svg>
