<svg width="40" height="36" viewBox="0 0 40 36" fill="none" xmlns="http://www.w3.org/2000/svg">
<path d="M1.25 1.78418V25.9248L9.53125 17.6436L10 17.1748L10.3906 17.6436L17.5 24.6748L29.5312 12.6436L30 12.1748L30.3906 12.6436L38.75 20.9248V1.78418H1.25ZM1.25 27.7217V34.2842H7.8125L16.5625 25.5342L10 18.9717L1.25 27.7217ZM30 13.9717L9.60938 34.2842H38.75V22.7217L30 13.9717ZM0 0.53418H1.25H38.75H40V1.78418V34.2842V35.5342H38.75H1.25H0V34.2842V1.78418V0.53418ZM13.125 10.5342C13.125 9.44043 12.5 8.4248 11.5625 7.87793C10.5469 7.33105 9.375 7.33105 8.4375 7.87793C7.42188 8.4248 6.875 9.44043 6.875 10.5342C6.875 11.7061 7.42188 12.7217 8.4375 13.2686C9.375 13.8154 10.5469 13.8154 11.5625 13.2686C12.5 12.7217 13.125 11.7061 13.125 10.5342ZM5.625 10.5342C5.625 8.97168 6.40625 7.56543 7.8125 6.78418C9.14062 6.00293 10.7812 6.00293 12.1875 6.78418C13.5156 7.56543 14.375 8.97168 14.375 10.5342C14.375 12.1748 13.5156 13.5811 12.1875 14.3623C10.7812 15.1436 9.14062 15.1436 7.8125 14.3623C6.40625 13.5811 5.625 12.1748 5.625 10.5342Z" fill="#41B4FF"/>
</svg>
