<svg width="25" height="24" viewBox="0 0 25 24" fill="none" xmlns="http://www.w3.org/2000/svg">
<path d="M22.2701 3.23438L21.2858 6.75L22.9264 7.82812L24.2858 8.625L23.067 9.65625L21.2858 11.1094L19.7858 12.375L20.5358 12.5156L21.7076 12.7031L22.0358 12.75L21.6608 14.25L21.2858 15.75L22.7389 17.0156L23.9108 18L22.7389 19.0312L21.2858 20.25L21.4733 22.4062L21.6608 24L20.1139 23.625L13.0358 21.75L11.8639 22.9219L10.7858 24L9.98889 22.6406L7.41077 17.9531L2.06702 23.2969L1.55139 23.8125L0.473267 22.7344L0.988892 22.2188L6.33264 16.875L1.64514 14.2969L0.285767 13.5L1.36389 12.4219L2.53577 11.25L0.660767 4.17188L0.285767 2.625L1.87952 2.8125L4.03577 3L5.25452 1.54688L6.28577 0.375L7.27014 1.54688L8.53577 3L10.0358 2.625L11.5358 2.25L11.5826 2.57812L11.7701 3.75L11.9108 4.5L13.1764 3L14.6295 1.21875L15.6608 0L16.4576 1.35938L17.5358 3L21.0514 2.01562L22.7858 1.5L22.2701 3.23438ZM7.45764 15.7969L14.0201 9.1875L14.5358 8.67188L15.6139 9.75L15.0983 10.2656L8.48889 16.8281L11.1139 21.5625L11.9576 20.7188L12.567 20.1094L13.4108 20.2969L19.9264 22.0312L19.7858 20.4375L19.692 19.6406L20.3014 19.125L21.567 18L20.3014 16.9219L19.5983 16.3125L19.7858 15.4219L20.1608 13.9688L19.5045 13.875L16.2701 13.3125L18.8014 11.25L21.7076 8.8125L20.4889 8.0625L19.5045 7.45312L19.8326 6.375L20.5826 3.70312L17.9108 4.45312L16.8326 4.78125L16.2233 3.79688L15.4733 2.57812L13.0358 5.48438L10.9264 7.96875L10.4108 4.78125L10.317 4.125L8.86389 4.45312L7.97327 4.6875L7.36389 3.98438L6.28577 2.71875L5.16077 3.98438L4.64514 4.59375L3.84827 4.5L2.25452 4.35938L3.98889 10.875L4.17639 11.7188L3.56702 12.3281L2.72327 13.1719L7.45764 15.7969Z" fill="#41B4FF"/>
</svg>
