<svg width="41" height="41" viewBox="0 0 41 41" fill="none" xmlns="http://www.w3.org/2000/svg">
<path d="M37.3643 4.78436L35.333 12.05L39.1611 14.55L40.333 15.175L39.3174 16.0344L34.083 20.4094L32.833 21.425L34.3955 21.7375L35.333 21.8937L36.583 22.05L36.2705 23.3L35.333 27.05L38.6924 30.0187L39.708 30.8L38.6924 31.6594L35.333 34.55L35.8018 39.4719L35.958 40.8L34.6299 40.4875L21.583 37.05L18.6924 39.9406L17.833 40.8L17.1299 39.7062L11.8955 30.175L1.66113 40.4094L1.19238 40.8L0.333008 39.9406L0.723633 39.4719L10.958 29.2375L1.42676 24.0031L0.333008 23.3L1.19238 22.4406L4.08301 19.55L0.645508 6.50311L0.333008 5.17499L1.66113 5.33124L6.58301 5.79999L9.47363 2.44061L10.333 1.42499L11.1143 2.44061L14.083 5.79999L17.833 4.86249L19.083 4.54999L19.2393 5.79999L19.3955 6.73749L19.708 8.29999L20.7236 7.04999L25.0986 1.81561L25.958 0.799988L26.583 1.97186L29.083 5.79999L36.3486 3.76874L37.833 3.29999L37.3643 4.78436ZM11.8955 28.3781L24.2393 16.0344L24.708 15.5656L25.5674 16.425L25.0986 16.8937L12.7549 29.2375L18.0674 38.7687L20.6455 36.1906L21.1924 35.7219L21.8955 35.8781L34.4736 39.1594L34.083 34.7062L34.0049 34.0812L34.4736 33.6125L37.7549 30.8L34.4736 28.0656L33.9268 27.5187L34.083 26.8156L35.0205 23.0656L32.5986 22.675L29.9424 22.2062L31.9736 20.4875L38.1455 15.3312L34.6299 13.1437L33.8486 12.675L34.083 11.7375L35.958 5.17499L29.3955 7.04999L28.458 7.28436L27.9893 6.50311L25.8018 2.98749L20.6455 9.15936L18.9268 11.1906L18.458 8.53436L18.0674 6.11249L14.3174 7.04999L13.6143 7.20624L13.0674 6.65936L10.333 3.37811L7.52051 6.65936L7.05176 7.12811L6.42676 7.04999L1.97363 6.65936L5.25488 19.2375L5.41113 19.9406L4.94238 20.4875L2.36426 23.0656L11.8955 28.3781Z" fill="#41B4FF"/>
</svg>
