<svg width="18" height="25" viewBox="0 0 18 25" fill="none" xmlns="http://www.w3.org/2000/svg">
<path d="M14.5312 12.9409C15.2812 11.8159 15.75 10.5034 15.75 9.05029C15.75 5.34717 12.7031 2.30029 9 2.30029C5.25 2.30029 2.25 5.34717 2.25 9.05029C2.25 10.5034 2.67188 11.8159 3.42188 12.9409C3.60938 13.1753 3.84375 13.5034 4.07812 13.8315C4.6875 14.6284 5.34375 15.5659 5.85938 16.5034C6.28125 17.2534 6.51562 18.0503 6.60938 18.8472H5.10938C4.96875 18.2847 4.82812 17.7222 4.54688 17.2065C4.07812 16.3628 3.51562 15.5659 2.90625 14.769C2.67188 14.4409 2.4375 14.1128 2.20312 13.7847C1.26562 12.4253 0.75 10.8315 0.75 9.05029C0.75 4.50342 4.40625 0.800293 9 0.800293C13.5469 0.800293 17.25 4.50342 17.25 9.05029C17.25 10.8315 16.6875 12.4253 15.75 13.7847C15.5156 14.1128 15.2812 14.4409 15.0469 14.769C14.4375 15.5659 13.875 16.3628 13.4062 17.2065C13.125 17.7222 12.9844 18.2378 12.8438 18.8003H11.3438C11.4844 18.0503 11.6719 17.2534 12.0938 16.5034C12.6094 15.5659 13.3125 14.6284 13.875 13.7847C14.1094 13.5034 14.3438 13.1753 14.5312 12.894V12.9409ZM9 5.30029C6.89062 5.30029 5.25 6.98779 5.25 9.05029H3.75C3.75 6.19092 6.09375 3.80029 9 3.80029V5.30029ZM6.75 21.8003V23.3003H11.25V21.8003H6.75ZM5.25 21.8003V20.3003H6.75H11.25H12.75V21.8003V23.3003V24.8003H11.25H6.75H5.25V23.3003V21.8003Z" fill="#41B4FF"/>
</svg>
