<svg width="25" height="20" viewBox="0 0 25 20" fill="none" xmlns="http://www.w3.org/2000/svg">
<path d="M7.8125 1.56561L4.0625 6.06561L3.54688 6.67499L2.9375 6.11249L0.6875 3.86249L0.171875 3.29999L1.25 2.26874L1.76562 2.78436L3.40625 4.47186L6.64062 0.581238L7.15625 0.0187378L8.28125 0.956238L7.8125 1.56561ZM7.8125 9.06561L4.0625 13.5656L3.54688 14.175L2.9375 13.6125L0.6875 11.3625L0.171875 10.8L1.25 9.76874L1.76562 10.2844L3.40625 11.9719L6.64062 8.08124L7.15625 7.51874L8.28125 8.45624L7.8125 9.06561ZM9.5 2.54999H10.25H23.75H24.5V4.04999H23.75H10.25H9.5V2.54999ZM9.5 10.05H10.25H23.75H24.5V11.55H23.75H10.25H9.5V10.05ZM8 17.55H8.75H23.75H24.5V19.05H23.75H8.75H8V17.55ZM5 18.3C5 19.1437 4.29688 19.8 3.5 19.8C2.65625 19.8 2 19.1437 2 18.3C2 17.5031 2.65625 16.8 3.5 16.8C4.29688 16.8 5 17.5031 5 18.3Z" fill="#41B4FF"/>
</svg>
