<svg width="40" height="32" viewBox="0 0 40 32" fill="none" xmlns="http://www.w3.org/2000/svg">
<path d="M12.2656 2.01874L5.39062 8.89374L5 9.28436L4.53125 8.97186L0.78125 5.84686L0.3125 5.37811L1.17188 4.44061L1.64062 4.83124L4.92188 7.64374L11.4062 1.15936L11.875 0.690613L12.7344 1.54999L12.2656 2.01874ZM12.2656 14.5187L5.39062 21.3937L5 21.7844L4.53125 21.4719L0.78125 18.3469L0.3125 17.8781L1.17188 16.9406L1.64062 17.3312L4.92188 20.1437L11.4062 13.6594L11.875 13.1906L12.7344 14.05L12.2656 14.5187ZM15.625 4.67499H16.25H38.75H39.375V5.92499H38.75H16.25H15.625V4.67499ZM15.625 17.175H16.25H38.75H39.375V18.425H38.75H16.25H15.625V17.175ZM13.125 29.675H13.75H38.75H39.375V30.925H38.75H13.75H13.125V29.675ZM6.25 30.3C6.25 31.0031 5.625 31.55 5 31.55C4.29688 31.55 3.75 31.0031 3.75 30.3C3.75 29.675 4.29688 29.05 5 29.05C5.625 29.05 6.25 29.675 6.25 30.3Z" fill="#41B4FF"/>
</svg>
