<svg width="343" height="65" viewBox="0 0 343 65" fill="none" xmlns="http://www.w3.org/2000/svg">
<g clip-path="url(#clip0_2335_5894)">
<path d="M49.9137 32.8001C49.9137 42.733 41.873 50.7858 31.9549 50.7858C22.0369 50.7858 13.9962 42.733 13.9962 32.8001C13.9962 22.8672 22.0369 14.8144 31.9549 14.8144C41.873 14.8144 49.9137 22.8672 49.9137 32.8001ZM63.9041 32.8001C63.9041 15.1325 49.596 0.802979 31.9492 0.802979C14.3023 0.802979 0 15.1325 0 32.8001C0 50.4676 14.3081 64.7972 31.9492 64.7972C49.5902 64.7972 63.8983 50.4676 63.8983 32.8001" fill="#F17C23"/>
<path d="M63.9041 0.802979H80.5632L102.548 32.5398L80.4015 64.6584H63.9041L85.3634 32.7307L63.9041 0.802979Z" fill="#F17C23"/>
<path d="M145.133 33.9832C145.133 40.6013 140.275 45.426 133.84 45.426C127.405 45.426 122.547 40.6071 122.547 33.9832C122.547 27.3593 127.405 22.5404 133.84 22.5404C140.275 22.5404 145.133 27.3188 145.133 33.9832ZM139.31 33.9832C139.31 29.9047 136.682 27.8452 133.84 27.8452C130.998 27.8452 128.369 29.9047 128.369 33.9832C128.369 38.0616 130.998 40.1211 133.84 40.1211C136.682 40.1211 139.31 38.0616 139.31 33.9832Z" fill="white"/>
<path d="M148.46 53.097V23.1999H154.109V25.8321C155.074 24.166 157.477 22.7197 160.717 22.7197C167.019 22.7197 170.653 27.5386 170.653 33.9427C170.653 40.3467 166.58 45.2987 160.498 45.2987C157.523 45.2987 155.334 44.1128 154.282 42.6665V53.097H148.46ZM159.579 27.9378C156.604 27.9378 154.196 30.1708 154.196 33.989C154.196 37.8071 156.604 40.0806 159.579 40.0806C162.554 40.0806 164.917 37.8476 164.917 33.989C164.917 30.1303 162.554 27.9378 159.579 27.9378Z" fill="white"/>
<path d="M181.027 23.1999H185.359V28.3717H181.027V37.4021C181.027 39.2881 181.899 39.9013 183.563 39.9013C184.262 39.9013 185.053 39.8145 185.359 39.7277V44.5467C184.834 44.7665 183.782 45.0731 182.078 45.0731C177.879 45.0731 175.251 42.574 175.251 38.4087V28.3717H171.357V23.1999H172.449C174.725 23.1999 175.776 21.7073 175.776 19.7809V16.7553H181.027V23.1999Z" fill="white"/>
<path d="M191.921 12.5033C193.937 12.5033 195.508 14.1231 195.508 16.1421C195.508 18.1611 193.931 19.6941 191.921 19.6941C189.911 19.6941 188.334 18.0743 188.334 16.1421C188.334 14.2099 189.951 12.5033 191.921 12.5033ZM189.033 44.7665V23.1999H194.856V44.7665H189.033Z" fill="white"/>
<path d="M199.8 44.7665V23.1999H205.357V25.832C206.541 23.7263 209.297 22.5866 211.659 22.5866C214.594 22.5866 216.956 23.8593 218.048 26.1792C219.758 23.547 222.034 22.5866 224.875 22.5866C228.861 22.5866 232.668 24.999 232.668 30.784V44.7665H227.019V31.9642C227.019 29.6386 225.881 27.8857 223.212 27.8857C220.716 27.8857 219.226 29.8122 219.226 32.1378V44.7607H213.45V31.9584C213.45 29.6328 212.266 27.88 209.643 27.88C207.021 27.88 205.617 29.7659 205.617 32.132V44.7549H199.794L199.8 44.7665Z" fill="white"/>
<path d="M251.054 42.4467C249.87 44.4657 247.375 45.3392 245.099 45.3392C239.888 45.3392 236.913 41.5269 236.913 36.8352V23.1999H242.736V35.6493C242.736 38.0616 243.961 39.9881 246.676 39.9881C249.39 39.9881 250.748 38.2352 250.748 35.7361V23.1999H256.571V40.8674C256.571 42.5335 256.703 44.026 256.79 44.7665H251.233C251.146 44.3269 251.06 43.3203 251.06 42.4409L251.054 42.4467Z" fill="white"/>
<path d="M264.669 37.6683C264.802 39.3806 266.067 40.9542 268.608 40.9542C270.532 40.9542 271.456 39.9476 271.456 38.8079C271.456 37.8418 270.798 37.055 269.134 36.7022L266.292 36.0427C262.133 35.1228 260.25 32.6237 260.25 29.5981C260.25 25.7395 263.664 22.5404 268.302 22.5404C274.431 22.5404 276.487 26.4395 276.747 28.7651L271.889 29.8584C271.716 28.5857 270.798 26.9659 268.343 26.9659C266.812 26.9659 265.587 27.8857 265.587 29.1122C265.587 30.1651 266.373 30.8245 267.557 31.0386L270.619 31.6981C274.864 32.5774 277.007 35.1633 277.007 38.3162C277.007 41.8219 274.292 45.4202 268.649 45.4202C262.174 45.4202 259.938 41.2145 259.678 38.7558L264.669 37.6625V37.6683Z" fill="white"/>
<path d="M291.806 37.9749C292.072 40.1674 293.73 41.9203 296.711 41.9203C299.033 41.9203 300.298 40.6071 300.298 39.1145C300.298 37.8013 299.333 36.7889 297.583 36.3955L293.996 35.6088C290.715 34.9088 288.745 32.67 288.745 29.6907C288.745 26.0982 292.113 23.0263 296.231 23.0263C302.008 23.0263 303.804 26.7982 304.243 28.6783L300.61 30.0378C300.436 28.9444 299.558 26.532 296.231 26.532C294.129 26.532 292.731 27.8915 292.731 29.3378C292.731 30.6105 293.516 31.5303 295.139 31.8832L298.553 32.6295C302.36 33.4625 304.376 35.7881 304.376 38.9005C304.376 42.0128 301.88 45.4318 296.67 45.4318C290.894 45.4318 288.439 41.7062 288.092 39.2939L291.812 37.9807L291.806 37.9749Z" fill="white"/>
<path d="M308.57 44.7665V13.0297H312.642V26.6651C313.647 24.7792 316.102 23.0726 319.602 23.0726C325.991 23.0726 329.278 27.9841 329.278 34.122C329.278 40.26 325.731 45.345 319.475 45.345C316.368 45.345 313.959 43.9855 312.648 41.7062V44.7723H308.575L308.57 44.7665ZM318.857 26.7056C315.224 26.7056 312.596 29.5576 312.596 34.1162C312.596 38.6749 315.224 41.6542 318.857 41.6542C322.491 41.6542 325.073 38.6749 325.073 34.1162C325.073 29.5576 322.664 26.7056 318.857 26.7056Z" fill="white"/>
<path d="M344.943 27.8452C344.331 27.7585 343.719 27.7122 343.147 27.7122C339.687 27.7122 337.371 29.5518 337.371 34.1972V44.7607H333.258V23.6742H337.284V27.3593C338.815 24.1139 341.443 23.3271 343.586 23.3271C344.152 23.3271 344.724 23.4139 344.943 23.4602V27.8452Z" fill="white"/>
</g>
<defs>
<clipPath id="clip0_2335_5894">
<rect width="342.857" height="63.9942" fill="white" transform="translate(0 0.802979)"/>
</clipPath>
</defs>
</svg>
