<svg width="912" height="625" viewBox="0 0 912 625" fill="none" xmlns="http://www.w3.org/2000/svg">
<g opacity="0.4" filter="url(#filter0_d_0_5)">
<path d="M381.812 248.799C381.812 174.295 321.594 113.894 247.316 113.894C173.038 113.894 112.82 174.295 112.82 248.799C112.82 323.302 173.038 383.704 247.316 383.704C321.594 383.704 381.812 323.302 381.812 248.799ZM486.589 248.799C486.589 381.317 379.433 488.799 247.273 488.799C115.113 488.799 8 381.317 8 248.799C8 116.28 115.156 8.79858 247.273 8.79858C379.39 8.79858 486.545 116.28 486.545 248.799" fill="#19234C"/>
<path d="M486.589 488.799H611.351L776 250.751L610.14 9.84003H486.589L647.301 249.319L486.589 488.799Z" fill="#19234C"/>
</g>
<defs>
<filter id="filter0_d_0_5" x="0" y="0.798584" width="912" height="624" filterUnits="userSpaceOnUse" color-interpolation-filters="sRGB">
<feFlood flood-opacity="0" result="BackgroundImageFix"/>
<feColorMatrix in="SourceAlpha" type="matrix" values="0 0 0 0 0 0 0 0 0 0 0 0 0 0 0 0 0 0 127 0" result="hardAlpha"/>
<feOffset dx="64" dy="64"/>
<feGaussianBlur stdDeviation="36"/>
<feComposite in2="hardAlpha" operator="out"/>
<feColorMatrix type="matrix" values="0 0 0 0 0.0784314 0 0 0 0 0.152941 0 0 0 0 0.431373 0 0 0 0.5 0"/>
<feBlend mode="normal" in2="BackgroundImageFix" result="effect1_dropShadow_0_5"/>
<feBlend mode="normal" in="SourceGraphic" in2="effect1_dropShadow_0_5" result="shape"/>
</filter>
</defs>
</svg>
