<svg width="31" height="24" viewBox="0 0 31 24" fill="none" xmlns="http://www.w3.org/2000/svg">
<path d="M10.1094 2.47188C10.7188 2.70625 11.3281 3.03438 11.8438 3.50313L13.8594 2.8L15.5 5.6125L13.9062 7.01875C13.9531 7.34688 14 7.72188 14 8.05C14 8.425 13.9531 8.75313 13.9062 9.12813L15.5 10.5344L13.8594 13.3L11.8438 12.6438C11.3281 13.1125 10.7188 13.4406 10.1094 13.675L9.64062 15.925H6.35938L5.89062 13.675C5.23438 13.4406 4.625 13.1125 4.10938 12.6438L2.09375 13.3L0.5 10.5344L2.04688 9.12813C2 8.8 2 8.425 2 8.05C2 7.72188 2 7.34688 2.04688 7.01875L0.5 5.6125L2.09375 2.8L4.10938 3.50313C4.625 3.03438 5.23438 2.70625 5.89062 2.47188L6.35938 0.175003H9.64062L10.1094 2.47188ZM13.2031 4.62813L12.3125 4.90938L11.5156 5.19063L10.8594 4.62813C10.4844 4.3 10.0625 4.01875 9.54688 3.87813L8.79688 3.55L8.60938 2.75313L8.42188 1.675H7.57812L7.34375 2.75313L7.15625 3.55L6.40625 3.87813C5.89062 4.06563 5.46875 4.3 5.09375 4.62813L4.4375 5.19063L3.64062 4.90938L2.79688 4.62813L2.375 5.28438L3.07812 5.89375L3.6875 6.45625L3.54688 7.3C3.5 7.53438 3.45312 7.81563 3.45312 8.05C3.45312 8.33125 3.5 8.6125 3.54688 8.84688L3.6875 9.69063L3.07812 10.2531L2.375 10.8625L2.79688 11.5188L3.64062 11.2375L4.4375 10.9563L5.09375 11.5188C5.46875 11.8469 5.89062 12.0813 6.40625 12.2688L7.15625 12.5969L7.34375 13.3938L7.57812 14.425H8.42188L8.60938 13.3938L8.79688 12.55L9.54688 12.2688C10.0625 12.0813 10.4844 11.8469 10.8594 11.5188L11.5156 10.9563L12.3125 11.2375L13.2031 11.5188L13.5781 10.8625L12.875 10.2531L12.2656 9.69063L12.4062 8.84688C12.4531 8.6125 12.5 8.33125 12.5 8.05C12.5 7.81563 12.4531 7.53438 12.4062 7.3L12.2656 6.45625L12.875 5.89375L13.5781 5.28438L13.2031 4.62813ZM8 9.175C8.60938 9.175 9.125 8.70625 9.125 8.05C9.125 7.44063 8.60938 6.925 8 6.925C7.34375 6.925 6.875 7.44063 6.875 8.05C6.875 8.70625 7.34375 9.175 8 9.175ZM5.375 8.05C5.375 7.1125 5.84375 6.26875 6.6875 5.8C7.48438 5.33125 8.46875 5.33125 9.3125 5.8C10.1094 6.26875 10.625 7.1125 10.625 8.05C10.625 9.03438 10.1094 9.87813 9.3125 10.3469C8.46875 10.8156 7.48438 10.8156 6.6875 10.3469C5.84375 9.87813 5.375 9.03438 5.375 8.05ZM16.625 14.1906C16.8594 13.5813 17.1875 12.9719 17.6562 12.4563L17 10.4406L19.7656 8.8L21.1719 10.3938C21.5 10.3469 21.875 10.3 22.25 10.3C22.5781 10.3 22.9531 10.3469 23.2812 10.3938L24.6875 8.8L27.5 10.4406L26.7969 12.4563C27.2656 12.9719 27.5938 13.5813 27.8281 14.1906L30.125 14.6594V17.9406L27.8281 18.4094C27.5938 19.0656 27.2656 19.675 26.7969 20.1906L27.5 22.2063L24.6875 23.8L23.2812 22.2531C22.9531 22.3 22.5781 22.3 22.25 22.3C21.875 22.3 21.5469 22.3 21.1719 22.2531L19.7656 23.8L17 22.2063L17.6562 20.1906C17.1875 19.675 16.8594 19.0656 16.625 18.4094L14.375 17.9406V14.6594L16.625 14.1906ZM18.7812 11.0969L19.0625 11.9875L19.3438 12.7844L18.7812 13.4406C18.4531 13.8156 18.2188 14.2375 18.0312 14.7531L17.7031 15.5031L16.9062 15.6906L15.875 15.8781V16.7219L16.9062 16.9563L17.75 17.1438L18.0312 17.8938C18.2188 18.4094 18.4531 18.8313 18.7812 19.2063L19.3438 19.8625L19.0625 20.6594L18.7812 21.5031L19.4375 21.925L20.0469 21.2219L20.6094 20.6125L21.4531 20.7531C21.6875 20.8 21.9688 20.8469 22.25 20.8469C22.4844 20.8469 22.7656 20.8 23 20.7531L23.8438 20.6125L24.4062 21.2219L25.0156 21.925L25.6719 21.5031L25.3906 20.6594L25.1094 19.8625L25.6719 19.2063C26 18.8313 26.2812 18.4094 26.4219 17.8938L26.75 17.1438L27.5469 16.9563L28.625 16.7219V15.8781L27.5469 15.6906L26.75 15.5031L26.4219 14.7531C26.2344 14.2375 26 13.8156 25.6719 13.4406L25.1094 12.7844L25.3906 11.9875L25.6719 11.0969L25.0156 10.7219L24.4062 11.425L23.8438 12.0344L23 11.8938C22.7656 11.8469 22.4844 11.8 22.25 11.8C21.9688 11.8 21.6875 11.8469 21.4531 11.8938L20.6094 12.0344L20.0469 11.425L19.4375 10.7219L18.7812 11.0969ZM23.375 16.3C23.375 15.6906 22.8594 15.175 22.25 15.175C21.5938 15.175 21.125 15.6906 21.125 16.3C21.125 16.9563 21.5938 17.425 22.25 17.425C22.8594 17.425 23.375 16.9563 23.375 16.3ZM22.25 18.925C21.2656 18.925 20.4219 18.4563 19.9531 17.6125C19.4844 16.8156 19.4844 15.8313 19.9531 14.9875C20.4219 14.1906 21.2656 13.675 22.25 13.675C23.1875 13.675 24.0312 14.1906 24.5 14.9875C24.9688 15.8313 24.9688 16.8156 24.5 17.6125C24.0312 18.4563 23.1875 18.925 22.25 18.925Z" fill="#41B4FF"/>
</svg>
