<svg width="40" height="41" viewBox="0 0 40 41" fill="none" xmlns="http://www.w3.org/2000/svg">
<path d="M13.125 1.42499V5.79999H19.375V1.42499V0.799988H20.625V1.42499V5.79999H26.875V1.42499V0.799988H28.125V1.42499V5.79999H33.75H35V7.04999V12.675H39.375H40V13.925H39.375H35V20.175H39.375H40V21.425H39.375H35V27.675H39.375H40V28.925H39.375H35V34.55V35.8H33.75H28.125V40.175V40.8H26.875V40.175V35.8H20.625V40.175V40.8H19.375V40.175V35.8H13.125V40.175V40.8H11.875V40.175V35.8H6.25H5V34.55V28.925H0.625H0V27.675H0.625H5V21.425H0.625H0V20.175H0.625H5V13.925H0.625H0V12.675H0.625H5V7.04999V5.79999H6.25H11.875V1.42499V0.799988H13.125V1.42499ZM19.375 7.04999H13.125H11.875H6.25V12.675V13.925V20.175V21.425V27.675V28.925V34.55H11.875H13.125H19.375H20.625H26.875H28.125H33.75V28.925V27.675V21.425V20.175V13.925V12.675V7.04999H28.125H26.875H20.625H19.375ZM28.75 12.05H11.25V29.55H28.75V12.05ZM11.25 10.8H28.75H30V12.05V29.55V30.8H28.75H11.25H10V29.55V12.05V10.8H11.25Z" fill="#41B4FF"/>
</svg>
