<svg width="24" height="22" viewBox="0 0 24 22" fill="none" xmlns="http://www.w3.org/2000/svg">
<path d="M4.5 0.5H5.25H23.25H24V1.25V20.75V21.5H23.25H6H5.25H3H0.75H0V20.75V4.25V3.5H0.75H3V5H1.5V20H3H4.5V1.25V0.5ZM6 20H22.5V2H6V20ZM18 3.5H18.75H20.25H21V5H20.25H18.75H18V3.5ZM18 6.5H18.75H20.25H21V8H20.25H18.75H18V6.5ZM18 9.5H18.75H20.25H21V11H20.25H18.75H18V9.5ZM7.5 12.5H8.25H20.25H21V14H20.25H8.25H7.5V12.5ZM7.5 15.5H8.25H20.25H21V17H20.25H8.25H7.5V15.5ZM9 5V9.5H15V5H9ZM7.5 3.5H9H15H16.5V5V9.5V11H15H9H7.5V9.5V5V3.5Z" fill="#41B4FF"/>
</svg>
