<svg width="20" height="20" viewBox="0 0 20 20" fill="none" xmlns="http://www.w3.org/2000/svg">
<path d="M5.625 0.534668H14.375H15V1.15967V4.28467H18.75H20V5.53467V18.0347V19.2847H18.75H1.25H0V18.0347V5.53467V4.28467H1.25H5V1.15967V0.534668H5.625ZM13.75 4.28467V1.78467H6.25V4.28467H13.75ZM5.625 5.53467H1.25V10.5347H6.875H8.125H11.875H13.125H18.75V5.53467H14.375H5.625ZM18.75 11.7847H13.125V13.6597V14.9097H11.875H8.125H6.875V13.6597V11.7847H1.25V18.0347H18.75V11.7847ZM8.125 11.7847V13.6597H11.875V11.7847H8.125Z" fill="#41B4FF"/>
</svg>
