<svg width="60" height="49" viewBox="0 0 60 49" fill="none" xmlns="http://www.w3.org/2000/svg">
<path d="M7.5 8.29999C7.5 10.4562 8.625 12.425 10.5 13.55C12.2812 14.5812 14.625 14.5812 16.5 13.55C18.2812 12.425 19.5 10.4562 19.5 8.29999C19.5 6.23749 18.2812 4.26874 16.5 3.14374C14.625 2.11249 12.2812 2.11249 10.5 3.14374C8.625 4.26874 7.5 6.23749 7.5 8.29999ZM21 8.29999C21 11.0187 19.5 13.4562 17.25 14.8625C14.9062 16.175 12 16.175 9.75 14.8625C7.40625 13.4562 6 11.0187 6 8.29999C6 5.67499 7.40625 3.23749 9.75 1.83124C12 0.518738 14.9062 0.518738 17.25 1.83124C19.5 3.23749 21 5.67499 21 8.29999ZM30 14.3C27.2812 14.3 24.8438 15.8 23.4375 18.05C22.125 20.3937 22.125 23.3 23.4375 25.55C24.8438 27.8937 27.2812 29.3 30 29.3C32.625 29.3 35.0625 27.8937 36.4688 25.55C37.7812 23.3 37.7812 20.3937 36.4688 18.05C35.0625 15.8 32.625 14.3 30 14.3ZM30 30.8C26.7188 30.8 23.8125 29.1125 22.125 26.3C20.5312 23.5812 20.5312 20.1125 22.125 17.3C23.8125 14.5812 26.7188 12.8 30 12.8C33.1875 12.8 36.0938 14.5812 37.7812 17.3C39.375 20.1125 39.375 23.5812 37.7812 26.3C36.0938 29.1125 33.1875 30.8 30 30.8ZM17.5312 35.3L13.9688 47.3H45.9375L42.375 35.3H17.5312ZM43.5 33.8L47.5312 47.3L48 48.8H46.4062H13.5H12L12.375 47.3L16.5 33.8H43.5ZM18.375 18.8C18.1875 19.3625 18.0938 19.8312 18.0938 20.3H5.53125L2.15625 29.3H0.5625L4.5 18.8H18.375ZM41.625 18.8H55.5L59.4375 29.3H57.75L54.375 20.3H41.9062C41.8125 19.8312 41.7188 19.3625 41.625 18.8ZM42 8.29999C42 10.4562 43.125 12.425 45 13.55C46.7812 14.5812 49.125 14.5812 51 13.55C52.7812 12.425 54 10.4562 54 8.29999C54 6.23749 52.7812 4.26874 51 3.14374C49.125 2.11249 46.7812 2.11249 45 3.14374C43.125 4.26874 42 6.23749 42 8.29999ZM55.5 8.29999C55.5 11.0187 54 13.4562 51.75 14.8625C49.4062 16.175 46.5 16.175 44.25 14.8625C41.9062 13.4562 40.5 11.0187 40.5 8.29999C40.5 5.67499 41.9062 3.23749 44.25 1.83124C46.5 0.518738 49.4062 0.518738 51.75 1.83124C54 3.23749 55.5 5.67499 55.5 8.29999Z" fill="#41B4FF"/>
</svg>
