<svg width="21" height="21" viewBox="0 0 21 21" fill="none" xmlns="http://www.w3.org/2000/svg">
<path d="M12.4258 14.675L11.6055 14.2063C9.61328 13.0344 7.93359 11.3547 6.76172 9.36255L6.29297 8.54224L6.95703 7.83911L8.55859 6.27661L6.76172 1.74536L1.91797 2.60474V2.80005C1.91797 11.7844 9.18359 19.05 18.168 19.05H18.3633L19.2227 14.2063L14.6914 12.4094L13.1289 14.011L12.4258 14.675ZM14.418 10.925L20.668 13.425L19.418 20.3H18.168C8.48047 20.3 0.667969 12.4875 0.667969 2.80005V1.55005L7.54297 0.300049L10.043 6.55005L7.85547 8.73755C8.91016 10.5735 10.3945 12.0579 12.2305 13.1125L14.418 10.925Z" fill="#41B4FF"/>
</svg>
