<svg width="45" height="41" viewBox="0 0 45 41" fill="none" xmlns="http://www.w3.org/2000/svg">
<path d="M42.3438 17.2062C43.6719 18.0656 45 19.3156 45 20.8C45 22.4406 43.6719 23.6906 42.3438 24.4719C41.0156 25.3312 39.2969 25.8 37.9688 25.8H28.75H28.5938L20.5469 40.4875L20.3125 40.8H20H13.125H12.2656L12.5 40.0187L16.4062 25.8H15H9.6875L6.09375 30.5656L5.9375 30.8H5.625H1.25H0.390625L0.625 30.0187L3.04688 20.8L0.625 11.6594L0.390625 10.8H1.25H5.625H5.9375L6.09375 11.1125L9.6875 15.8H15H16.4062L12.5 1.65936L12.2656 0.799988H13.125H20H20.3125L20.5469 1.19061L28.5938 15.8H28.75H37.9688C39.2969 15.8 41.0156 16.3469 42.3438 17.2062ZM28.75 17.05H28.2031H27.8906H18.0469H17.2656H15H9.375H9.0625L8.82812 16.8156L5.3125 12.05H2.03125L4.29688 20.6437L4.375 20.8L4.29688 21.0344L2.03125 29.55H5.3125L8.82812 24.8625L9.0625 24.55H9.375H15H17.2656H18.0469H27.8906H28.2031H28.75H37.9688C38.9844 24.55 40.4688 24.1594 41.7188 23.3781C42.9688 22.675 43.6719 21.7375 43.6719 20.8C43.6719 20.0187 42.9688 19.0812 41.7188 18.3C40.4688 17.5187 38.9844 17.05 37.9688 17.05H28.75ZM27.1875 15.8L19.6094 2.04999H13.9062L17.7344 15.8H27.1875ZM17.7344 25.8L13.9062 39.55H19.6094L27.1875 25.8H17.7344Z" fill="#41B4FF"/>
</svg>
