<svg width="28" height="25" viewBox="0 0 28 25" fill="none" xmlns="http://www.w3.org/2000/svg">
<path d="M26.8438 11.2063C27.2188 11.6282 27.5 12.1907 27.5 12.8C27.5 14.0657 26.4688 15.05 25.5312 15.6125C24.5469 16.175 23.2812 16.55 22.3438 16.55H17.6094L13.1094 24.425L12.9219 24.8H12.5H8H6.96875L7.25 23.8625L9.35938 16.55H7.25L5.1875 19.2688L5 19.55H4.625H1.625H0.640625L0.875 18.6594L2.32812 12.8L0.875 6.98755L0.640625 6.05005H1.625H4.625H5L5.1875 6.37817L7.25 9.05005H9.35938L7.25 1.78442L6.96875 0.800049H8H12.5H12.9219L13.1094 1.22192L17.6094 9.05005H22.3438C23.3281 9.05005 24.5469 9.47192 25.5312 10.0813C26.0469 10.3625 26.5156 10.7375 26.8438 11.2063ZM24.7344 11.3469C23.9375 10.8313 22.9531 10.55 22.3438 10.55H17.1875H16.7656L16.5312 10.175L12.0312 2.30005H8.98438L11.0469 9.61255L11.3281 10.55H10.3438H6.875H6.5L6.26562 10.2688L4.25 7.55005H2.5625L3.82812 12.6594L3.875 12.8L3.82812 12.9875L2.5625 18.05H4.25L6.26562 15.3782L6.5 15.05H6.875H10.3438H11.3281L11.0469 16.0344L8.98438 23.3H12.0312L16.5312 15.4719L16.7656 15.05H17.1875H22.3438C22.9531 15.05 23.9375 14.8157 24.7344 14.3C25.5781 13.7844 26 13.2688 26 12.8C26 12.6125 25.9062 12.3782 25.6719 12.1438C25.4844 11.8625 25.1562 11.5813 24.7344 11.3469Z" fill="#41B4FF"/>
</svg>
