<svg width="27" height="24" viewBox="0 0 27 24" fill="none" xmlns="http://www.w3.org/2000/svg">
<path d="M26.2009 10.4062C26.5759 10.8281 26.8572 11.3906 26.8572 12C26.8572 13.2656 25.8259 14.25 24.8884 14.8125C23.9041 15.375 22.6384 15.75 21.7009 15.75H16.9666L12.4666 23.625L12.2791 24H11.8572H7.35718H6.32593L6.60718 23.0625L8.71655 15.75H6.60718L4.54468 18.4688L4.35718 18.75H3.98218H0.982178H-0.00219727L0.232178 17.8594L1.6853 12L0.232178 6.1875L-0.00219727 5.25H0.982178H3.98218H4.35718L4.54468 5.57812L6.60718 8.25H8.71655L6.60718 0.984375L6.32593 0H7.35718H11.8572H12.2791L12.4666 0.421875L16.9666 8.25H21.7009C22.6853 8.25 23.9041 8.67188 24.8884 9.28125C25.4041 9.5625 25.8728 9.9375 26.2009 10.4062ZM24.0916 10.5469C23.2947 10.0312 22.3103 9.75 21.7009 9.75H16.5447H16.1228L15.8884 9.375L11.3884 1.5H8.34155L10.4041 8.8125L10.6853 9.75H9.70093H6.23218H5.85718L5.6228 9.46875L3.60718 6.75H1.91968L3.1853 11.8594L3.23218 12L3.1853 12.1875L1.91968 17.25H3.60718L5.6228 14.5781L5.85718 14.25H6.23218H9.70093H10.6853L10.4041 15.2344L8.34155 22.5H11.3884L15.8884 14.6719L16.1228 14.25H16.5447H21.7009C22.3103 14.25 23.2947 14.0156 24.0916 13.5C24.9353 12.9844 25.3572 12.4688 25.3572 12C25.3572 11.8125 25.2634 11.5781 25.0291 11.3438C24.8416 11.0625 24.5134 10.7812 24.0916 10.5469Z" fill="#41B4FF"/>
</svg>
