<svg width="46" height="40" viewBox="0 0 46 40" fill="none" xmlns="http://www.w3.org/2000/svg">
<path d="M1.29199 0.268555H45.042H45.667V1.51855H45.042H1.29199H0.666992V0.268555H1.29199ZM4.41699 4.64355V26.5186H23.167H41.917V4.64355V4.01855H43.167V4.64355V27.1436C43.167 27.5342 42.8545 27.7686 42.542 27.7686H23.792V31.9092L30.4326 38.6279L30.9014 39.0186L30.042 39.9561L29.5732 39.4873L23.167 33.0811L16.6826 39.4873L16.292 39.9561L15.3545 39.0967L15.8232 38.6279L22.542 31.9092V27.7686H3.79199C3.40137 27.7686 3.16699 27.5342 3.16699 27.1436V4.64355V4.01855H4.41699V4.64355Z" fill="#41B4FF"/>
</svg>
