<svg width="24" height="25" viewBox="0 0 24 25" fill="none" xmlns="http://www.w3.org/2000/svg">
<path d="M21.9844 4.03442L21 7.55005L22.6406 8.62817L24 9.42505L22.7812 10.4563L21 11.9094L19.5 13.175L20.25 13.3157L21.4219 13.5032L21.75 13.55L21.375 15.05L21 16.55L22.4531 17.8157L23.625 18.8L22.4531 19.8313L21 21.05L21.1875 23.2063L21.375 24.8L19.8281 24.425L12.75 22.55L11.5781 23.7219L10.5 24.8L9.70312 23.4407L7.125 18.7532L1.78125 24.0969L1.26562 24.6125L0.1875 23.5344L0.703125 23.0188L6.04688 17.675L1.35938 15.0969L0 14.3L1.07812 13.2219L2.25 12.05L0.375 4.97192L0 3.42505L1.59375 3.61255L3.75 3.80005L4.96875 2.34692L6 1.17505L6.98438 2.34692L8.25 3.80005L9.75 3.42505L11.25 3.05005L11.2969 3.37817L11.4844 4.55005L11.625 5.30005L12.8906 3.80005L14.3438 2.0188L15.375 0.800049L16.1719 2.15942L17.25 3.80005L20.7656 2.81567L22.5 2.30005L21.9844 4.03442ZM7.17188 16.5969L13.7344 9.98755L14.25 9.47192L15.3281 10.55L14.8125 11.0657L8.20312 17.6282L10.8281 22.3625L11.6719 21.5188L12.2812 20.9094L13.125 21.0969L19.6406 22.8313L19.5 21.2375L19.4062 20.4407L20.0156 19.925L21.2812 18.8L20.0156 17.7219L19.3125 17.1125L19.5 16.2219L19.875 14.7688L19.2188 14.675L15.9844 14.1125L18.5156 12.05L21.4219 9.61255L20.2031 8.86255L19.2188 8.25317L19.5469 7.17505L20.2969 4.50317L17.625 5.25317L16.5469 5.5813L15.9375 4.59692L15.1875 3.37817L12.75 6.28442L10.6406 8.7688L10.125 5.5813L10.0312 4.92505L8.57812 5.25317L7.6875 5.48755L7.07812 4.78442L6 3.5188L4.875 4.78442L4.35938 5.3938L3.5625 5.30005L1.96875 5.15942L3.70312 11.675L3.89062 12.5188L3.28125 13.1282L2.4375 13.9719L7.17188 16.5969Z" fill="#41B4FF"/>
</svg>
