<svg width="42" height="42" viewBox="0 0 42 42" fill="none" xmlns="http://www.w3.org/2000/svg">
<path d="M14.1406 33.3313L7.8125 27.0032C7.8125 27.0032 8.35938 25.7532 9.21875 23.8H1.25H0.234375L0.625 22.9407L6.25 11.6907L6.48438 11.3H6.875H15.625C15.7812 10.9875 15.9375 10.7532 16.1719 10.4407C23.125 0.128174 33.8281 0.753174 39.2188 2.0813C40.5469 7.47192 41.1719 18.175 30.8594 25.1282C30.5469 25.3625 30.3125 25.5188 30 25.7532V34.425V34.8157L29.6094 35.05L18.3594 40.675L17.5 41.0657V40.05V31.925C15.4688 32.7844 14.1406 33.3313 14.1406 33.3313ZM18.75 39.1125L28.75 34.1125V26.4563C25.625 28.2532 21.7188 30.05 18.75 31.3782V39.1125ZM14.8438 12.55H7.1875L2.1875 22.55H9.76562C11.1719 19.5813 13.0469 15.675 14.8438 12.55ZM9.29688 26.7688L14.4531 31.8469C14.7656 31.7688 15.0781 31.6125 15.5469 31.3782C16.6406 30.9094 18.2812 30.2844 20 29.425C23.5156 27.8625 27.5781 25.8313 30.1562 24.1125C39.375 17.8625 39.375 8.40942 38.2031 3.09692C32.8906 1.92505 23.4375 1.92505 17.1875 11.1438C15.4688 13.7219 13.4375 17.7844 11.7969 21.3C10.9375 23.0188 10.2344 24.5813 9.76562 25.675C9.60938 26.1438 9.45312 26.4563 9.29688 26.7688ZM31.875 12.55C31.875 11.4563 31.25 10.4407 30.3125 9.8938C29.2969 9.34692 28.125 9.34692 27.1875 9.8938C26.1719 10.4407 25.625 11.4563 25.625 12.55C25.625 13.7219 26.1719 14.7375 27.1875 15.2844C28.125 15.8313 29.2969 15.8313 30.3125 15.2844C31.25 14.7375 31.875 13.7219 31.875 12.55ZM28.75 8.17505C30.3125 8.17505 31.7188 9.03442 32.5 10.3625C33.2812 11.7688 33.2812 13.4094 32.5 14.7375C31.7188 16.1438 30.3125 16.925 28.75 16.925C27.1094 16.925 25.7031 16.1438 24.9219 14.7375C24.1406 13.4094 24.1406 11.7688 24.9219 10.3625C25.7031 9.03442 27.1094 8.17505 28.75 8.17505Z" fill="#41B4FF"/>
</svg>
