<svg width="21" height="22" viewBox="0 0 21 22" fill="none" xmlns="http://www.w3.org/2000/svg">
<path d="M21 21.3003H19.5C19.5 10.5659 10.7344 1.80029 0 1.80029V0.300293C11.5781 0.300293 21 9.72217 21 21.3003ZM0 8.55029V7.05029C7.82812 7.05029 14.25 13.4722 14.25 21.3003H12.75C12.75 14.269 7.03125 8.55029 0 8.55029ZM1.5 18.3003C1.5 19.144 2.15625 19.8003 3 19.8003C3.79688 19.8003 4.5 19.144 4.5 18.3003C4.5 17.5034 3.79688 16.8003 3 16.8003C2.15625 16.8003 1.5 17.5034 1.5 18.3003ZM6 18.3003C6 19.3784 5.39062 20.3628 4.5 20.9253C3.5625 21.4409 2.39062 21.4409 1.5 20.9253C0.5625 20.3628 0 19.3784 0 18.3003C0 17.269 0.5625 16.2847 1.5 15.7222C2.39062 15.2065 3.5625 15.2065 4.5 15.7222C5.39062 16.2847 6 17.269 6 18.3003Z" fill="#41B4FF"/>
</svg>
