<svg width="630" height="374" viewBox="0 0 630 374" fill="none" xmlns="http://www.w3.org/2000/svg">
<g clip-path="url(#clip0_2002_2341)">
<rect y="25.2231" width="35.6707" height="128.414" rx="17.8353" transform="rotate(-45 0 25.2231)" fill="#FF599F"/>
<rect y="25.2231" width="35.6707" height="128.414" rx="17.8353" transform="rotate(-45 0 25.2231)" fill="white" fill-opacity="0.8"/>
<circle cx="25.2232" cy="25.2231" r="16.0518" transform="rotate(-45 25.2232 25.2231)" fill="#FF599F"/>
</g>
<g opacity="0.75">
<g clip-path="url(#clip1_2002_2341)">
<rect x="192.622" y="25.2231" width="35.6707" height="128.414" rx="17.8353" transform="rotate(-45 192.622 25.2231)" fill="#41B4FF"/>
<rect x="192.622" y="25.2231" width="35.6707" height="128.414" rx="17.8353" transform="rotate(-45 192.622 25.2231)" fill="white" fill-opacity="0.8"/>
<circle cx="217.845" cy="25.2231" r="16.0518" transform="rotate(-45 217.845 25.2231)" fill="#41B4FF"/>
</g>
</g>
<rect x="392.378" y="7.3877" width="35.6707" height="103.445" rx="17.8353" fill="#F17C23"/>
<rect x="392.378" y="7.3877" width="35.6707" height="103.445" rx="17.8353" fill="white" fill-opacity="0.8"/>
<circle cx="410.213" cy="25.2232" r="16.0518" fill="#F17C23"/>
<g opacity="0.5">
<rect x="495.822" y="134.91" width="35.6707" height="103.445" rx="17.8353" transform="rotate(90 495.822 134.91)" fill="#41B4FF"/>
<rect x="495.822" y="134.91" width="35.6707" height="103.445" rx="17.8353" transform="rotate(90 495.822 134.91)" fill="white" fill-opacity="0.8"/>
<circle cx="477.987" cy="152.746" r="16.0518" transform="rotate(90 477.987 152.746)" fill="#41B4FF"/>
</g>
<rect x="394.161" y="300.779" width="35.6707" height="94.5273" rx="17.8353" transform="rotate(-90 394.161 300.779)" fill="#9747FF"/>
<rect x="394.161" y="300.779" width="35.6707" height="94.5273" rx="17.8353" transform="rotate(-90 394.161 300.779)" fill="white" fill-opacity="0.8"/>
<circle cx="411.997" cy="282.944" r="16.0518" transform="rotate(-90 411.997 282.944)" fill="#9747FF"/>
<rect x="518.117" y="170.581" width="35.6707" height="103.445" rx="17.8353" transform="rotate(-90 518.117 170.581)" fill="#F17C23"/>
<rect x="518.117" y="170.581" width="35.6707" height="103.445" rx="17.8353" transform="rotate(-90 518.117 170.581)" fill="white" fill-opacity="0.8"/>
<circle cx="535.953" cy="152.746" r="16.0518" transform="rotate(-90 535.953 152.746)" fill="#F17C23"/>
<g opacity="0.5">
<g clip-path="url(#clip2_2002_2341)">
<rect x="281.16" y="182.27" width="35.6707" height="128.414" rx="17.8353" transform="rotate(-135 281.16 182.27)" fill="#41B4FF"/>
<rect x="281.16" y="182.27" width="35.6707" height="128.414" rx="17.8353" transform="rotate(-135 281.16 182.27)" fill="white" fill-opacity="0.8"/>
<circle cx="281.16" cy="157.047" r="16.0518" transform="rotate(-135 281.16 157.047)" fill="#41B4FF"/>
</g>
</g>
<g opacity="0.5">
<g clip-path="url(#clip3_2002_2341)">
<rect x="91.2139" y="116.183" width="35.6707" height="128.414" rx="17.8353" transform="rotate(-135 91.2139 116.183)" fill="#41B4FF"/>
<rect x="91.2139" y="116.183" width="35.6707" height="128.414" rx="17.8353" transform="rotate(-135 91.2139 116.183)" fill="white" fill-opacity="0.8"/>
<circle cx="91.2139" cy="90.96" r="16.0518" transform="rotate(-135 91.2139 90.96)" fill="#41B4FF"/>
</g>
</g>
<g opacity="0.5">
<g clip-path="url(#clip4_2002_2341)">
<rect x="536.687" y="0.157715" width="35.6707" height="128.414" rx="17.8353" transform="rotate(45 536.687 0.157715)" fill="#FF599F"/>
<rect x="536.687" y="0.157715" width="35.6707" height="128.414" rx="17.8353" transform="rotate(45 536.687 0.157715)" fill="white" fill-opacity="0.8"/>
<circle cx="536.687" cy="25.3809" r="16.0518" transform="rotate(45 536.687 25.3809)" fill="#FF599F"/>
</g>
</g>
<g opacity="0.5">
<g clip-path="url(#clip5_2002_2341)">
<rect x="536.687" y="191.983" width="35.6707" height="128.414" rx="17.8353" transform="rotate(45 536.687 191.983)" fill="#41B4FF"/>
<rect x="536.687" y="191.983" width="35.6707" height="128.414" rx="17.8353" transform="rotate(45 536.687 191.983)" fill="white" fill-opacity="0.8"/>
<circle cx="536.687" cy="217.207" r="16.0518" transform="rotate(45 536.687 217.207)" fill="#41B4FF"/>
</g>
</g>
<g clip-path="url(#clip6_2002_2341)">
<rect x="538.881" y="308.009" width="35.6707" height="128.414" rx="17.8353" transform="rotate(-135 538.881 308.009)" fill="#41B4FF"/>
<rect x="538.881" y="308.009" width="35.6707" height="128.414" rx="17.8353" transform="rotate(-135 538.881 308.009)" fill="white" fill-opacity="0.8"/>
<circle cx="538.881" cy="282.786" r="16.0518" transform="rotate(-135 538.881 282.786)" fill="#41B4FF"/>
</g>
<g clip-path="url(#clip7_2002_2341)">
<rect x="537.098" y="116.183" width="35.6707" height="128.414" rx="17.8353" transform="rotate(-135 537.098 116.183)" fill="#9747FF"/>
<rect x="537.098" y="116.183" width="35.6707" height="128.414" rx="17.8353" transform="rotate(-135 537.098 116.183)" fill="white" fill-opacity="0.8"/>
<circle cx="537.098" cy="90.96" r="16.0518" transform="rotate(-135 537.098 90.96)" fill="#9747FF"/>
</g>
<g opacity="0.5">
<g clip-path="url(#clip8_2002_2341)">
<rect x="629.684" y="348.777" width="35.6707" height="128.414" rx="17.8353" transform="rotate(135 629.684 348.777)" fill="#41B4FF"/>
<rect x="629.684" y="348.777" width="35.6707" height="128.414" rx="17.8353" transform="rotate(135 629.684 348.777)" fill="white" fill-opacity="0.8"/>
<circle cx="604.46" cy="348.777" r="16.0518" transform="rotate(135 604.46 348.777)" fill="#41B4FF"/>
</g>
</g>
<g clip-path="url(#clip9_2002_2341)">
<rect x="346.74" y="128.668" width="35.6707" height="128.414" rx="17.8353" transform="rotate(45 346.74 128.668)" fill="#9747FF"/>
<rect x="346.74" y="128.668" width="35.6707" height="128.414" rx="17.8353" transform="rotate(45 346.74 128.668)" fill="white" fill-opacity="0.8"/>
<circle cx="346.74" cy="153.891" r="16.0518" transform="rotate(45 346.74 153.891)" fill="#9747FF"/>
</g>
<rect x="235.427" y="175.04" width="35.6707" height="103.445" rx="17.8353" transform="rotate(-180 235.427 175.04)" fill="#FF599F"/>
<rect x="235.427" y="175.04" width="35.6707" height="103.445" rx="17.8353" transform="rotate(-180 235.427 175.04)" fill="white" fill-opacity="0.8"/>
<circle cx="217.591" cy="157.205" r="16.0518" transform="rotate(-180 217.591 157.205)" fill="#FF599F"/>
<g clip-path="url(#clip10_2002_2341)">
<rect x="371.963" y="90.8027" width="35.6707" height="128.414" rx="17.8353" transform="rotate(135 371.963 90.8027)" fill="#41B4FF"/>
<rect x="371.963" y="90.8027" width="35.6707" height="128.414" rx="17.8353" transform="rotate(135 371.963 90.8027)" fill="white" fill-opacity="0.8"/>
<circle cx="346.74" cy="90.8027" r="16.0518" transform="rotate(135 346.74 90.8027)" fill="#41B4FF"/>
</g>
<g clip-path="url(#clip11_2002_2341)">
<rect x="239.981" y="222.146" width="35.6707" height="128.414" rx="17.8353" transform="rotate(135 239.981 222.146)" fill="#F17C23"/>
<rect x="239.981" y="222.146" width="35.6707" height="128.414" rx="17.8353" transform="rotate(135 239.981 222.146)" fill="white" fill-opacity="0.8"/>
<circle cx="214.758" cy="222.146" r="16.0518" transform="rotate(135 214.758 222.146)" fill="#F17C23"/>
</g>
<rect x="392.378" y="134.911" width="35.6707" height="103.445" rx="17.8353" fill="#41B4FF"/>
<rect x="392.378" y="134.911" width="35.6707" height="103.445" rx="17.8353" fill="white" fill-opacity="0.8"/>
<circle cx="410.213" cy="152.746" r="16.0518" fill="#41B4FF"/>
<circle opacity="0.26" cx="89.5831" cy="26.5211" r="16.0518" fill="#41B4FF"/>
<circle opacity="0.26" cx="154.275" cy="91.2139" r="16.0518" fill="#41B4FF"/>
<circle opacity="0.26" cx="346.898" cy="26.5215" r="16.0518" fill="#41B4FF"/>
<circle opacity="0.26" cx="346.898" cy="222.304" r="16.0518" fill="#41B4FF"/>
<circle opacity="0.26" cx="479.771" cy="26.5215" r="16.0518" fill="#41B4FF"/>
<circle opacity="0.26" cx="604.618" cy="91.2139" r="16.0518" fill="#41B4FF"/>
<circle opacity="0.26" cx="472.637" cy="217.845" r="16.0518" fill="#41B4FF"/>
<defs>
<clipPath id="clip0_2002_2341">
<rect y="25.2231" width="35.6707" height="128.414" rx="17.8353" transform="rotate(-45 0 25.2231)" fill="white"/>
</clipPath>
<clipPath id="clip1_2002_2341">
<rect x="192.622" y="25.2231" width="35.6707" height="128.414" rx="17.8353" transform="rotate(-45 192.622 25.2231)" fill="white"/>
</clipPath>
<clipPath id="clip2_2002_2341">
<rect x="281.16" y="182.27" width="35.6707" height="128.414" rx="17.8353" transform="rotate(-135 281.16 182.27)" fill="white"/>
</clipPath>
<clipPath id="clip3_2002_2341">
<rect x="91.2139" y="116.183" width="35.6707" height="128.414" rx="17.8353" transform="rotate(-135 91.2139 116.183)" fill="white"/>
</clipPath>
<clipPath id="clip4_2002_2341">
<rect x="536.687" y="0.157715" width="35.6707" height="128.414" rx="17.8353" transform="rotate(45 536.687 0.157715)" fill="white"/>
</clipPath>
<clipPath id="clip5_2002_2341">
<rect x="536.687" y="191.983" width="35.6707" height="128.414" rx="17.8353" transform="rotate(45 536.687 191.983)" fill="white"/>
</clipPath>
<clipPath id="clip6_2002_2341">
<rect x="538.881" y="308.009" width="35.6707" height="128.414" rx="17.8353" transform="rotate(-135 538.881 308.009)" fill="white"/>
</clipPath>
<clipPath id="clip7_2002_2341">
<rect x="537.098" y="116.183" width="35.6707" height="128.414" rx="17.8353" transform="rotate(-135 537.098 116.183)" fill="white"/>
</clipPath>
<clipPath id="clip8_2002_2341">
<rect x="629.684" y="348.777" width="35.6707" height="128.414" rx="17.8353" transform="rotate(135 629.684 348.777)" fill="white"/>
</clipPath>
<clipPath id="clip9_2002_2341">
<rect x="346.74" y="128.668" width="35.6707" height="128.414" rx="17.8353" transform="rotate(45 346.74 128.668)" fill="white"/>
</clipPath>
<clipPath id="clip10_2002_2341">
<rect x="371.963" y="90.8027" width="35.6707" height="128.414" rx="17.8353" transform="rotate(135 371.963 90.8027)" fill="white"/>
</clipPath>
<clipPath id="clip11_2002_2341">
<rect x="239.981" y="222.146" width="35.6707" height="128.414" rx="17.8353" transform="rotate(135 239.981 222.146)" fill="white"/>
</clipPath>
</defs>
</svg>
