<svg width="39" height="41" viewBox="0 0 39 41" fill="none" xmlns="http://www.w3.org/2000/svg">
<path d="M19.1982 1.83105L2.94824 8.08105L2.24512 8.39355L2.16699 9.1748C1.93262 12.9248 2.55762 18.7061 4.97949 24.3311C7.47949 29.9561 11.7764 35.5811 19.1201 38.7061L19.667 38.9404L20.1357 38.7061C27.4795 35.5811 31.8545 29.9561 34.2764 24.3311C36.6982 18.7061 37.3232 12.9248 37.0889 9.1748L37.0107 8.39355L36.3076 8.08105L20.0576 1.83105L19.667 1.6748L19.1982 1.83105ZM38.3389 9.09668C38.5732 13.0029 37.9482 19.0186 35.4482 24.7998C32.8701 30.7373 28.3389 36.5186 20.6045 39.8779L19.667 40.2686L18.6514 39.8779C10.917 36.5186 6.38574 30.7373 3.80762 24.7998C1.30762 19.0186 0.682617 13.0029 0.916992 9.09668L0.995117 7.53418L2.47949 6.90918L18.7295 0.65918L19.667 0.268555L20.5264 0.65918L36.7764 6.90918L38.2607 7.53418L38.3389 9.09668ZM19.667 14.0186C18.2607 14.0186 17.167 15.1904 17.167 16.5186C17.167 17.9248 18.2607 19.0186 19.667 19.0186C20.9951 19.0186 22.167 17.9248 22.167 16.5186C22.167 15.1904 20.9951 14.0186 19.667 14.0186ZM23.417 16.5186C23.417 18.3936 22.0107 19.9561 20.292 20.2686V25.8936V26.5186H19.042V25.8936V20.2686C17.2451 19.9561 15.917 18.3936 15.917 16.5186C15.917 14.4873 17.5576 12.7686 19.667 12.7686C21.6982 12.7686 23.417 14.4873 23.417 16.5186Z" fill="#41B4FF"/>
</svg>
