<svg width="25" height="24" viewBox="0 0 25 24" fill="none" xmlns="http://www.w3.org/2000/svg">
<path d="M4.75891 1.59375L4.05579 1.82812L1.57141 2.8125V9C1.57141 12.3281 4.24329 15 7.57141 15C10.8527 15 13.5714 12.3281 13.5714 9V2.8125L11.0402 1.82812L10.337 1.59375L10.8527 0.1875L11.5558 0.421875L14.5558 1.54688L15.0714 1.73438V2.25V9C15.0714 12.8906 12.0714 16.125 8.32141 16.5C8.32141 19.8281 10.9933 22.5 14.3214 22.5C17.6027 22.5 20.3214 19.8281 20.3214 16.5V11.9062C19.0089 11.5781 18.0714 10.4062 18.0714 9C18.0714 7.35938 19.3839 6 21.0714 6C22.712 6 24.0714 7.35938 24.0714 9C24.0714 10.4062 23.087 11.5781 21.8214 11.9062V16.5C21.8214 20.6719 18.4464 24 14.3214 24C10.1495 24 6.82141 20.6719 6.82141 16.5C3.02454 16.125 0.0714111 12.8906 0.0714111 9V2.25V1.73438L0.540161 1.54688L3.54016 0.421875L4.24329 0.1875L4.75891 1.59375ZM21.0714 10.5C21.8683 10.5 22.5714 9.84375 22.5714 9C22.5714 8.20312 21.8683 7.5 21.0714 7.5C20.2277 7.5 19.5714 8.20312 19.5714 9C19.5714 9.84375 20.2277 10.5 21.0714 10.5Z" fill="#41B4FF"/>
</svg>
