<svg width="25" height="25" viewBox="0 0 25 25" fill="none" xmlns="http://www.w3.org/2000/svg">
<path d="M15.6406 1.22186L14.375 2.48749C13.7656 2.39374 13.1094 2.29999 12.5 2.29999C6.6875 2.29999 2 7.03436 2 12.8C2 18.6125 6.6875 23.3 12.5 23.3C18.2656 23.3 23 18.6125 23 12.8C23 12.1906 22.9062 11.5344 22.8125 10.925L24.0781 9.65936C24.3125 10.6906 24.5 11.7219 24.5 12.8C24.5 19.4562 19.1094 24.8 12.5 24.8C5.84375 24.8 0.5 19.4562 0.5 12.8C0.5 6.19061 5.84375 0.799988 12.5 0.799988C13.5781 0.799988 14.6094 0.987488 15.6406 1.22186ZM13.2969 5.34686L13.3906 6.89374C13.1094 6.84686 12.7812 6.79999 12.5 6.79999C9.17188 6.79999 6.5 9.51874 6.5 12.8C6.5 16.1281 9.17188 18.8 12.5 18.8C15.7812 18.8 18.5 16.1281 18.5 12.8C18.5 12.5187 18.4531 12.1906 18.4062 11.9094L19.9531 12.0031C19.9531 12.2844 20 12.5656 20 12.8C20 16.9719 16.625 20.3 12.5 20.3C8.32812 20.3 5 16.9719 5 12.8C5 8.67499 8.32812 5.29999 12.5 5.29999C12.7344 5.29999 13.0156 5.34686 13.2969 5.34686ZM20.9844 4.36249H20.9375V4.31561L20.9844 4.36249ZM18.3594 5.90936L17.4688 3.65936L16.25 4.87811L16.4844 7.78436L18.3594 5.90936ZM16.1562 10.2219L13.0156 13.3625L12.5 13.8781L11.4219 12.8L11.9375 12.2844L15.0781 9.14374L14.75 4.64374L14.7031 4.26874L14.9375 4.03436L17.1875 1.78436L17.9844 0.987488L18.4062 2.06561L19.8125 5.48749L23.2812 6.89374L24.3125 7.31561L23.5156 8.11249L21.2656 10.3625L21.0312 10.5969L20.6562 10.55L16.1562 10.2219ZM17.5156 8.81561L20.4219 9.04999L21.6406 7.83124L19.3906 6.94061L17.5156 8.81561Z" fill="#41B4FF"/>
</svg>
