<svg width="48" height="40" viewBox="0 0 48 40" fill="none" xmlns="http://www.w3.org/2000/svg">
<path d="M1.5 8.47186V9.79999H14V8.47186L7.75 2.22186L1.5 8.47186ZM6.8125 1.36249L7.75 0.424988L8.60938 1.36249L15.25 7.92499V9.79999V11.05H14H8.375V36.05H23.375V2.92499V2.29999H24H40.25H40.875V2.92499V28.55H46.5H47.75V29.8V31.675L41.1094 38.3156L40.25 39.175L39.3125 38.3156L32.75 31.675V29.8V28.55H34H39.625V3.54999H24.625V36.675V37.3H24H7.75H7.125V36.675V11.05H1.5H0.25V9.79999V7.92499L6.8125 1.36249ZM34 31.2062L40.25 37.4562L46.5 31.2062V29.8H34V31.2062Z" fill="#41B4FF"/>
</svg>
