<svg width="25" height="25" viewBox="0 0 25 25" fill="none" xmlns="http://www.w3.org/2000/svg">
<path d="M8.75 1.54999V3.79999H11.75V1.54999V0.799988H13.25V1.54999V3.79999H16.25V1.54999V0.799988H17.75V1.54999V3.79999H20H21.5V5.29999V7.54999H23.75H24.5V9.04999H23.75H21.5V12.05H23.75H24.5V13.55H23.75H21.5V16.55H23.75H24.5V18.05H23.75H21.5V20.3V21.8H20H17.75V24.05V24.8H16.25V24.05V21.8H13.25V24.05V24.8H11.75V24.05V21.8H8.75V24.05V24.8H7.25V24.05V21.8H5H3.5V20.3V18.05H1.25H0.5V16.55H1.25H3.5V13.55H1.25H0.5V12.05H1.25H3.5V9.04999H1.25H0.5V7.54999H1.25H3.5V5.29999V3.79999H5H7.25V1.54999V0.799988H8.75V1.54999ZM20 5.29999H5V20.3H20V5.29999ZM17 8.29999H8V17.3H17V8.29999ZM8 6.79999H17H18.5V8.29999V17.3V18.8H17H8H6.5V17.3V8.29999V6.79999H8Z" fill="#41B4FF"/>
</svg>
