<svg width="42" height="41" viewBox="0 0 42 41" fill="none" xmlns="http://www.w3.org/2000/svg">
<path d="M21 2.05005C14.2812 2.05005 8.10938 5.6438 4.75 11.425C1.39062 17.2844 1.39062 24.3938 4.75 30.175C8.10938 36.0344 14.2812 39.55 21 39.55C27.6406 39.55 33.8125 36.0344 37.1719 30.175C40.5312 24.3938 40.5312 17.2844 37.1719 11.425C33.8125 5.6438 27.6406 2.05005 21 2.05005ZM21 40.8C13.8125 40.8 7.25 37.05 3.65625 30.8C0.0625 24.6282 0.0625 17.05 3.65625 10.8C7.25 4.62817 13.8125 0.800049 21 0.800049C28.1094 0.800049 34.6719 4.62817 38.2656 10.8C41.8594 17.05 41.8594 24.6282 38.2656 30.8C34.6719 37.05 28.1094 40.8 21 40.8ZM28.8906 16.2688L18.8906 26.2688L18.5 26.7375L18.0312 26.2688L13.0312 21.2688L12.5625 20.8L13.5 19.9407L13.8906 20.4094L18.5 24.9407L28.0312 15.4094L28.5 14.9407L29.3594 15.8L28.8906 16.2688Z" fill="#F17C23"/>
</svg>
