<svg width="32" height="33" viewBox="0 0 32 33" fill="none" xmlns="http://www.w3.org/2000/svg">
<path d="M17.875 17.4175V30.8625H14.125V17.4175" stroke="#41B4FF" stroke-linecap="round" stroke-linejoin="round"/>
<path d="M12.25 21.4875H19.75" stroke="#41B4FF" stroke-linecap="round" stroke-linejoin="round"/>
<path d="M12.25 25.2375H19.75" stroke="#41B4FF" stroke-linecap="round" stroke-linejoin="round"/>
<path d="M10.6953 10.2375C11.0823 9.13961 11.8005 8.18887 12.7506 7.51635C13.7008 6.84383 14.8362 6.48267 16.0003 6.48267C17.1644 6.48267 18.2998 6.84383 19.25 7.51635C20.2002 8.18887 20.9183 9.13961 21.3053 10.2375" stroke="#41B4FF" stroke-linecap="round" stroke-linejoin="round"/>
<path d="M23.5 12.1125C23.5 12.6098 23.3025 13.0867 22.9508 13.4384C22.5992 13.79 22.1223 13.9875 21.625 13.9875H10.375C9.87772 13.9875 9.40081 13.79 9.04917 13.4384C8.69754 13.0867 8.5 12.6098 8.5 12.1125C8.5 11.6153 8.69754 11.1384 9.04917 10.7867C9.40081 10.4351 9.87772 10.2375 10.375 10.2375H21.625C22.1223 10.2375 22.5992 10.4351 22.9508 10.7867C23.3025 11.1384 23.5 11.6153 23.5 12.1125Z" stroke="#41B4FF" stroke-linecap="round" stroke-linejoin="round"/>
<path d="M21.3053 13.9875C20.9183 15.0854 20.2002 16.0362 19.25 16.7087C18.2998 17.3812 17.1644 17.7424 16.0003 17.7424C14.8362 17.7424 13.7008 17.3812 12.7506 16.7087C11.8005 16.0362 11.0823 15.0854 10.6953 13.9875" stroke="#41B4FF" stroke-linecap="round" stroke-linejoin="round"/>
<path d="M16 2.73755V6.48755" stroke="#41B4FF" stroke-linecap="round" stroke-linejoin="round"/>
<path d="M2.875 30.8625H29.125" stroke="#41B4FF" stroke-linecap="round" stroke-linejoin="round"/>
</svg>
