<svg width="31" height="24" viewBox="0 0 31 24" fill="none" xmlns="http://www.w3.org/2000/svg">
<path d="M1.92859 1.5V18H3.66296C4.27234 16.2656 5.95984 15 7.92859 15C9.85046 15 11.538 16.2656 12.1473 18H18.4286V1.5H1.92859ZM3.42859 19.5H1.92859H0.428589V18V1.5V0H1.92859H18.4286H19.9286V1.5V4.5H23.6786H24.0067L24.2411 4.78125L28.7411 10.0312L28.9286 10.2656V10.5V18H29.6786H30.4286V19.5H29.6786H28.9286H27.4286C27.4286 21.9844 25.413 24 22.9286 24C20.4442 24 18.4286 21.9844 18.4286 19.5H12.4286C12.4286 21.9844 10.413 24 7.92859 24C5.44421 24 3.42859 21.9844 3.42859 19.5ZM19.9286 10.5H27.1473L23.3036 6H19.9286V10.5ZM19.9286 12V16.1719C20.7255 15.4688 21.7567 15 22.9286 15C24.8505 15 26.538 16.2656 27.1473 18H27.4286V12H19.9286ZM10.9286 19.5C10.9286 18.4688 10.3192 17.4844 9.42859 16.9219C8.49109 16.4062 7.31921 16.4062 6.42859 16.9219C5.49109 17.4844 4.92859 18.4688 4.92859 19.5C4.92859 20.5781 5.49109 21.5625 6.42859 22.125C7.31921 22.6406 8.49109 22.6406 9.42859 22.125C10.3192 21.5625 10.9286 20.5781 10.9286 19.5ZM22.9286 22.5C23.9598 22.5 24.9442 21.9375 25.5067 21C26.0223 20.1094 26.0223 18.9375 25.5067 18C24.9442 17.1094 23.9598 16.5 22.9286 16.5C21.8505 16.5 20.8661 17.1094 20.3036 18C19.788 18.9375 19.788 20.1094 20.3036 21C20.8661 21.9375 21.8505 22.5 22.9286 22.5Z" fill="#41B4FF"/>
</svg>
