<svg width="30" height="25" viewBox="0 0 30 25" fill="none" xmlns="http://www.w3.org/2000/svg">
<path d="M1.5 2.30005V18.8H3.23438C3.84375 17.0657 5.53125 15.8 7.5 15.8C9.42188 15.8 11.1094 17.0657 11.7188 18.8H18V2.30005H1.5ZM3 20.3H1.5H0V18.8V2.30005V0.800049H1.5H18H19.5V2.30005V5.30005H23.25H23.5781L23.8125 5.5813L28.3125 10.8313L28.5 11.0657V11.3V18.8H29.25H30V20.3H29.25H28.5H27C27 22.7844 24.9844 24.8 22.5 24.8C20.0156 24.8 18 22.7844 18 20.3H12C12 22.7844 9.98438 24.8 7.5 24.8C5.01562 24.8 3 22.7844 3 20.3ZM19.5 11.3H26.7188L22.875 6.80005H19.5V11.3ZM19.5 12.8V16.9719C20.2969 16.2688 21.3281 15.8 22.5 15.8C24.4219 15.8 26.1094 17.0657 26.7188 18.8H27V12.8H19.5ZM10.5 20.3C10.5 19.2688 9.89062 18.2844 9 17.7219C8.0625 17.2063 6.89062 17.2063 6 17.7219C5.0625 18.2844 4.5 19.2688 4.5 20.3C4.5 21.3782 5.0625 22.3625 6 22.925C6.89062 23.4407 8.0625 23.4407 9 22.925C9.89062 22.3625 10.5 21.3782 10.5 20.3ZM22.5 23.3C23.5312 23.3 24.5156 22.7375 25.0781 21.8C25.5938 20.9094 25.5938 19.7375 25.0781 18.8C24.5156 17.9094 23.5312 17.3 22.5 17.3C21.4219 17.3 20.4375 17.9094 19.875 18.8C19.3594 19.7375 19.3594 20.9094 19.875 21.8C20.4375 22.7375 21.4219 23.3 22.5 23.3Z" fill="#41B4FF"/>
</svg>
