<svg width="50" height="41" viewBox="0 0 50 41" fill="none" xmlns="http://www.w3.org/2000/svg">
<path d="M1.25 2.04999V32.05H5.23438C6.01562 29.2375 8.67188 27.05 11.875 27.05C15 27.05 17.6562 29.2375 18.4375 32.05H31.25V2.04999H1.25ZM5 33.3H1.25H0V32.05V2.04999V0.799988H1.25H31.25H32.5V2.04999V8.29999H38.125H38.3594L38.5156 8.53436L47.2656 17.2844L47.4219 17.4406V17.675V32.05H49.2969H49.9219V33.3H49.2969H44.9219C44.9219 33.5344 45 33.7687 45 33.925C45 37.7531 41.875 40.8 38.125 40.8C34.2969 40.8 31.25 37.7531 31.25 33.925C31.25 33.7687 31.25 33.5344 31.25 33.3H18.6719C18.6719 33.5344 18.75 33.7687 18.75 33.925C18.75 37.7531 15.625 40.8 11.875 40.8C8.04688 40.8 5 37.7531 5 33.925C5 33.7687 5 33.5344 5 33.3ZM32.5 17.675H45.9375L37.8125 9.54999H32.5V17.675ZM32.5 18.925V30.0187C33.6719 28.2219 35.7812 27.05 38.125 27.05C41.25 27.05 43.9062 29.2375 44.6875 32.05H46.25V18.925H32.5ZM17.5 33.925C17.5 31.9719 16.4062 30.0969 14.6875 29.0812C12.8906 28.0656 10.7812 28.0656 9.0625 29.0812C7.26562 30.0969 6.25 31.9719 6.25 33.925C6.25 35.9562 7.26562 37.8312 9.0625 38.8469C10.7812 39.8625 12.8906 39.8625 14.6875 38.8469C16.4062 37.8312 17.5 35.9562 17.5 33.925ZM38.125 39.55C40.0781 39.55 41.9531 38.5344 42.9688 36.7375C43.9844 35.0187 43.9844 32.9094 42.9688 31.1125C41.9531 29.3937 40.0781 28.3 38.125 28.3C36.0938 28.3 34.2188 29.3937 33.2031 31.1125C32.1875 32.9094 32.1875 35.0187 33.2031 36.7375C34.2188 38.5344 36.0938 39.55 38.125 39.55Z" fill="#41B4FF"/>
</svg>
