<svg width="31" height="25" viewBox="0 0 31 25" fill="none" xmlns="http://www.w3.org/2000/svg">
<path d="M11 2.29999C9.35938 2.29999 7.90625 3.19061 7.0625 4.54999C6.26562 5.95624 6.26562 7.69061 7.0625 9.04999C7.90625 10.4562 9.35938 11.3 11 11.3C12.5938 11.3 14.0469 10.4562 14.8906 9.04999C15.6875 7.69061 15.6875 5.95624 14.8906 4.54999C14.0469 3.19061 12.5938 2.29999 11 2.29999ZM11 12.8C8.84375 12.8 6.875 11.675 5.79688 9.79999C4.71875 7.97186 4.71875 5.67499 5.79688 3.79999C6.875 1.97186 8.84375 0.799988 11 0.799988C13.1094 0.799988 15.0781 1.97186 16.1562 3.79999C17.2344 5.67499 17.2344 7.97186 16.1562 9.79999C15.0781 11.675 13.1094 12.8 11 12.8ZM4.57812 16.55L2.51562 23.3H19.4375L17.375 16.55H4.57812ZM18.5 15.05L21.0312 23.3L21.5 24.8H19.9062H2.04688H0.5L0.921875 23.3L3.5 15.05H18.5ZM28.9062 24.8H23.0469L22.9062 24.3781L22.5781 23.3H28.3906L26.375 17.3H20.75L20.2812 15.8H27.5L29.9844 23.3L30.5 24.8H28.9062ZM20.75 12.8C19.2969 12.8 17.9844 12.2375 17 11.3C17.3281 10.8781 17.6094 10.4094 17.7969 9.94061C18.5 10.7844 19.5312 11.3 20.75 11.3C22.8125 11.3 24.5 9.65936 24.5 7.54999C24.5 5.48749 22.8125 3.79999 20.75 3.79999C19.7656 3.79999 18.875 4.17499 18.2188 4.78436C18.0781 4.26874 17.8438 3.79999 17.6094 3.33124C18.5 2.72186 19.5781 2.29999 20.75 2.29999C23.6094 2.29999 26 4.69061 26 7.54999C26 10.4562 23.6094 12.8 20.75 12.8Z" fill="#41B4FF"/>
</svg>
