<svg width="50" height="41" viewBox="0 0 50 41" fill="none" xmlns="http://www.w3.org/2000/svg">
<path d="M6.25 6.55029C6.25 8.34717 7.1875 9.98779 8.75 10.9253C10.2344 11.7847 12.1875 11.7847 13.75 10.9253C15.2344 9.98779 16.25 8.34717 16.25 6.55029C16.25 4.83154 15.2344 3.19092 13.75 2.25342C12.1875 1.39404 10.2344 1.39404 8.75 2.25342C7.1875 3.19092 6.25 4.83154 6.25 6.55029ZM17.5 6.55029C17.5 8.81592 16.25 10.8472 14.375 12.019C12.4219 13.1128 10 13.1128 8.125 12.019C6.17188 10.8472 5 8.81592 5 6.55029C5 4.36279 6.17188 2.33154 8.125 1.15967C10 0.065918 12.4219 0.065918 14.375 1.15967C16.25 2.33154 17.5 4.36279 17.5 6.55029ZM25 11.5503C22.7344 11.5503 20.7031 12.8003 19.5312 14.6753C18.4375 16.6284 18.4375 19.0503 19.5312 20.9253C20.7031 22.8784 22.7344 24.0503 25 24.0503C27.1875 24.0503 29.2188 22.8784 30.3906 20.9253C31.4844 19.0503 31.4844 16.6284 30.3906 14.6753C29.2188 12.8003 27.1875 11.5503 25 11.5503ZM25 25.3003C22.2656 25.3003 19.8438 23.894 18.4375 21.5503C17.1094 19.2847 17.1094 16.394 18.4375 14.0503C19.8438 11.7847 22.2656 10.3003 25 10.3003C27.6562 10.3003 30.0781 11.7847 31.4844 14.0503C32.8125 16.394 32.8125 19.2847 31.4844 21.5503C30.0781 23.894 27.6562 25.3003 25 25.3003ZM14.6094 29.0503L11.6406 39.0503H38.2812L35.3125 29.0503H14.6094ZM36.25 27.8003L39.6094 39.0503L40 40.3003H38.6719H11.25H10L10.3125 39.0503L13.75 27.8003H36.25ZM15.3125 15.3003C15.1562 15.769 15.0781 16.1597 15.0781 16.5503H4.60938L1.79688 24.0503H0.46875L3.75 15.3003H15.3125ZM34.6875 15.3003H46.25L49.5312 24.0503H48.125L45.3125 16.5503H34.9219C34.8438 16.1597 34.7656 15.769 34.6875 15.3003ZM35 6.55029C35 8.34717 35.9375 9.98779 37.5 10.9253C38.9844 11.7847 40.9375 11.7847 42.5 10.9253C43.9844 9.98779 45 8.34717 45 6.55029C45 4.83154 43.9844 3.19092 42.5 2.25342C40.9375 1.39404 38.9844 1.39404 37.5 2.25342C35.9375 3.19092 35 4.83154 35 6.55029ZM46.25 6.55029C46.25 8.81592 45 10.8472 43.125 12.019C41.1719 13.1128 38.75 13.1128 36.875 12.019C34.9219 10.8472 33.75 8.81592 33.75 6.55029C33.75 4.36279 34.9219 2.33154 36.875 1.15967C38.75 0.065918 41.1719 0.065918 43.125 1.15967C45 2.33154 46.25 4.36279 46.25 6.55029Z" fill="#41B4FF"/>
</svg>
