<svg width="50" height="41" viewBox="0 0 50 41" fill="none" xmlns="http://www.w3.org/2000/svg">
<path d="M17.5 2.05005C14.2969 2.05005 11.4844 3.7688 9.92188 6.42505C8.28125 9.15942 8.28125 12.5188 9.92188 15.175C11.4844 17.9094 14.2969 19.55 17.5 19.55C20.625 19.55 23.4375 17.9094 25 15.175C26.6406 12.5188 26.6406 9.15942 25 6.42505C23.4375 3.7688 20.625 2.05005 17.5 2.05005ZM17.5 20.8C13.9062 20.8 10.625 18.925 8.82812 15.8C7.03125 12.7532 7.03125 8.92505 8.82812 5.80005C10.625 2.75317 13.9062 0.800049 17.5 0.800049C21.0156 0.800049 24.2969 2.75317 26.0938 5.80005C27.8906 8.92505 27.8906 12.7532 26.0938 15.8C24.2969 18.925 21.0156 20.8 17.5 20.8ZM5.85938 25.8L1.64062 39.55H33.2812L29.0625 25.8H5.85938ZM30 24.55L34.6094 39.55L35 40.8H33.6719H1.25H0L0.3125 39.55L5 24.55H30ZM48.6719 40.8H37.5781L37.3438 40.0969L37.1875 39.55H48.2031L44.0625 27.05H33.3594L32.9688 25.8H45L49.5312 39.55L50 40.8H48.6719ZM33.75 20.8C31.3281 20.8 29.1406 19.8625 27.5 18.3C27.8125 17.9094 28.0469 17.5969 28.2031 17.2063C29.6094 18.6907 31.5625 19.55 33.75 19.55C37.8906 19.55 41.25 16.1907 41.25 12.05C41.25 7.90942 37.8906 4.55005 33.75 4.55005C31.9531 4.55005 30.3125 5.17505 29.0625 6.19067C28.9062 5.80005 28.75 5.40942 28.5156 5.0188C30 4.00317 31.7969 3.30005 33.75 3.30005C38.5156 3.30005 42.5 7.28442 42.5 12.05C42.5 16.8938 38.5156 20.8 33.75 20.8Z" fill="#41B4FF"/>
</svg>
