<svg width="40" height="36" viewBox="0 0 40 36" fill="none" xmlns="http://www.w3.org/2000/svg">
<path d="M0.625 0.875H36.875H37.5V2.125H36.875H1.25V34.625H38.75V8.375H5.625H5V7.125H5.625H39.375H40V7.75V35.25V35.875H39.375H0.625H0V35.25V1.5V0.875H0.625ZM29.375 21.5C29.375 22.5938 30.1562 23.375 31.25 23.375C32.2656 23.375 33.125 22.5938 33.125 21.5C33.125 20.4844 32.2656 19.625 31.25 19.625C30.1562 19.625 29.375 20.4844 29.375 21.5ZM34.375 21.5C34.375 22.6719 33.75 23.6875 32.8125 24.2344C31.7969 24.7812 30.625 24.7812 29.6875 24.2344C28.6719 23.6875 28.125 22.6719 28.125 21.5C28.125 20.4062 28.6719 19.3906 29.6875 18.8438C30.625 18.2969 31.7969 18.2969 32.8125 18.8438C33.75 19.3906 34.375 20.4062 34.375 21.5Z" fill="#F17C23"/>
</svg>
